<?xml version="1.0" encoding="iso-8859-1"?>
<!-- Generator: Adobe Illustrator 16.0.0, SVG Export Plug-In . SVG Version: 6.00 Build 0)  -->
<!DOCTYPE svg PUBLIC "-//W3C//DTD SVG 1.1//EN" "http://www.w3.org/Graphics/SVG/1.1/DTD/svg11.dtd">
<svg version="1.1" id="Capa_1" xmlns="http://www.w3.org/2000/svg" xmlns:xlink="http://www.w3.org/1999/xlink" x="0px" y="0px"
	 width="57.68px" height="57.679px" viewBox="0 0 57.68 57.679" style="enable-background:new 0 0 57.68 57.679;"
	 xml:space="preserve">
<g>
	<g>
		<path d="M31.107,42.48c0.332-0.375,0.338-0.938,0.01-1.316c-5.097-5.909-10.396-8.905-15.752-8.905
			c-9.131,0-14.956,8.639-15.199,9.008c-0.239,0.36-0.219,0.836,0.053,1.176c4.301,5.379,9.205,8.105,14.575,8.105
			c0.147,0,0.291-0.021,0.438-0.023c0.15,0.01,0.298,0.023,0.45,0.023c0.825,0,1.62-0.121,2.38-0.33
			C25.465,48.735,30.852,42.769,31.107,42.48z M17.809,48.21c-0.827,0.175-1.677,0.284-2.549,0.312
			c-3.653-0.217-6.56-3.25-6.56-6.955c0-3.848,3.131-6.979,6.979-6.979s6.978,3.132,6.978,6.979
			C22.654,44.672,20.615,47.307,17.809,48.21z M2.26,41.777c0.881-1.146,3.08-3.729,6.216-5.547C7.365,37.724,6.7,39.568,6.7,41.568
			c0,2.035,0.689,3.908,1.835,5.416C6.337,45.857,4.236,44.128,2.26,41.777z M23.494,45.968c0.736-1.302,1.161-2.801,1.161-4.398
			c0-1.758-0.515-3.395-1.391-4.777c1.919,1.226,3.833,2.887,5.733,4.992C28.058,42.706,26.093,44.471,23.494,45.968z"/>
		<path d="M17.235,36.571c-0.455-0.277-0.984-0.446-1.557-0.446s-1.103,0.169-1.557,0.446c-1.765,0.744-3.035,2.691-3.035,4.994
			c0,2.939,2.061,5.334,4.593,5.334s4.593-2.395,4.593-5.334C20.271,39.266,19.001,37.318,17.235,36.571z M16.678,39.125
			c0,0.552-0.448,1-1,1s-1-0.448-1-1c0-0.341,0.18-0.624,0.438-0.808c0.182-0.051,0.368-0.084,0.562-0.084
			c0.192,0,0.38,0.033,0.561,0.084C16.499,38.5,16.678,38.784,16.678,39.125z M15.678,44.902c-1.43,0-2.593-1.496-2.593-3.334
			c0-0.277,0.034-0.545,0.085-0.806c0.536,0.817,1.458,1.361,2.508,1.361s1.971-0.543,2.508-1.361
			c0.05,0.261,0.085,0.525,0.085,0.806C18.271,43.405,17.108,44.902,15.678,44.902z"/>
		<path d="M57.65,11.137c-0.012-0.061-0.018-0.119-0.037-0.176c-0.008-0.02-0.006-0.044-0.016-0.063
			c-0.012-0.027-0.035-0.048-0.051-0.074c-0.006-0.012-0.017-0.022-0.021-0.034c-0.033-0.055-0.062-0.107-0.104-0.155
			c-0.019-0.018-0.025-0.041-0.045-0.058c-0.002-0.003-0.002-0.006-0.007-0.009c-0.028-0.028-0.065-0.038-0.098-0.062
			c-0.05-0.037-0.097-0.073-0.149-0.101c-0.025-0.012-0.048-0.029-0.072-0.039c-0.047-0.019-0.096-0.021-0.146-0.033
			c-0.037-0.009-0.065-0.03-0.104-0.034L30.885,7.133c-0.021-0.003-0.041,0.006-0.063,0.004c-0.062-0.004-0.119,0.004-0.181,0.012
			c-0.075,0.009-0.147,0.018-0.219,0.043c-0.043,0.015-0.078,0.04-0.119,0.061c-0.071,0.04-0.146,0.081-0.207,0.139
			c-0.014,0.012-0.028,0.016-0.043,0.029l-13.08,13.163c-0.001,0.001-0.002,0.002-0.002,0.002l-0.001,0.001
			c-0.005,0.005-0.006,0.012-0.011,0.017c-0.022,0.023-0.034,0.055-0.055,0.081c-0.041,0.053-0.08,0.103-0.11,0.164
			c-0.012,0.022-0.029,0.04-0.038,0.063c-0.019,0.044-0.019,0.091-0.029,0.137c-0.01,0.039-0.033,0.072-0.038,0.113
			c-0.003,0.021,0.006,0.042,0.004,0.062c0,0.003-0.001,0.005-0.001,0.007c-0.001,0.02-0.012,0.038-0.012,0.059v6.834
			c0,0.553,0.447,1,1,1s1-0.447,1-1V22.43l24.168,3.156v22.881l-11.094-0.84c-0.553-0.048-1.026,0.37-1.069,0.922
			c-0.041,0.553,0.368,1.03,0.922,1.072l12.168,0.921c0.022,0.002,0.049,0.003,0.073,0.003l0,0l0,0h0.003
			c0.133,0,0.26-0.028,0.377-0.075c0.006-0.003,0.01-0.004,0.016-0.007c0.022-0.009,0.039-0.027,0.06-0.04
			c0.016-0.008,0.027-0.02,0.041-0.026c0.067-0.039,0.139-0.076,0.195-0.132c0.012-0.012,0.022-0.022,0.032-0.036
			c0.006-0.007,0.015-0.009,0.021-0.015l12.834-14.255c0.033-0.036,0.045-0.081,0.069-0.121c0.044-0.063,0.089-0.122,0.115-0.191
			c0.022-0.065,0.028-0.139,0.041-0.207c0.008-0.052,0.028-0.098,0.028-0.146v-24c0-0.004-0.002-0.007-0.002-0.011
			C57.676,11.231,57.655,11.185,57.65,11.137z M31.127,9.176l23.45,2.865l-11.104,11.61l-23.659-3.09L31.127,9.176z M44.846,25.109
			l10.832-11.326v21.125L44.846,46.941V25.109z"/>
		<path d="M53.012,20.291c-0.553,0-1,0.447-1,1v11.965c0,0.553,0.447,1,1,1s1-0.447,1-1V21.291
			C54.012,20.738,53.564,20.291,53.012,20.291z"/>
	</g>
</g>
<g>
</g>
<g>
</g>
<g>
</g>
<g>
</g>
<g>
</g>
<g>
</g>
<g>
</g>
<g>
</g>
<g>
</g>
<g>
</g>
<g>
</g>
<g>
</g>
<g>
</g>
<g>
</g>
<g>
</g>
</svg>
