<?xml version="1.0" encoding="utf-8"?>
<!-- Generator: Adobe Illustrator 17.0.0, SVG Export Plug-In . SVG Version: 6.00 Build 0)  -->
<!DOCTYPE svg PUBLIC "-//W3C//DTD SVG 1.1//EN" "http://www.w3.org/Graphics/SVG/1.1/DTD/svg11.dtd">
<svg version="1.1" id="Capa_1" xmlns="http://www.w3.org/2000/svg" xmlns:xlink="http://www.w3.org/1999/xlink" x="0px" y="0px"
	 width="134.725px" height="131px" viewBox="0 0 134.725 131" enable-background="new 0 0 134.725 131" xml:space="preserve">
<rect fill="#4CBBFF" stroke="#000000" stroke-width="4" stroke-miterlimit="10" width="134.725" height="131"/>
<g id="Forma_1_2_">
	<g>
		<path d="M111.088,52.169c-0.824-0.592-2.463-1.379-5.549-2.406c-0.357-3.143-0.407-8.556,2.084-10.373
			c0.046-0.033,0.078-0.081,0.118-0.123c2.038-0.763,3.447-1.835,2.341-3.276l-30.06-10.608L31.35,33.308
			c0,0-5.574,0.933-5.076,11.075c0.27,5.52,1.748,8.23,3.041,9.565l-3.994,1.41c-1.109,1.442,0.301,2.513,2.34,3.275
			c0.039,0.042,0.072,0.09,0.117,0.124c2.491,1.82,2.443,7.231,2.084,10.375c-8.948,2.976-5.736,3.946-5.736,3.946l1.963,0.556
			c-1.381,1.461-2.752,4.232-2.495,9.487c0.498,10.14,5.076,10.84,5.076,10.84l28.705,10.927h7.367l43.852-12.441
			c0,0,3.215-0.971-5.736-3.947c-0.36-3.139-0.41-8.55,2.087-10.374c0.046-0.032,0.079-0.081,0.117-0.122
			c2.038-0.763,3.447-1.834,2.338-3.275l-2.089-0.739c1.395-0.984,3.488-3.557,3.815-10.238c0.228-4.596-0.796-7.288-1.981-8.873
			l3.943-1.118C111.088,53.761,111.088,52.169,111.088,52.169z M65.327,49.633l8.085-1.946l27.321-6.576l4.07-0.98
			c-1.3,2.788-1.247,6.604-1.031,9.056c0.047,0.555,0.101,1.062,0.154,1.446l-4.455,1.298L64.987,61.977L65.327,49.633z
			 M30.599,59.501l4.07,0.981l26.238,6.316l2.292,0.55l6.874,1.655l0.338,12.345l-35.44-10.327l-3.494-1.017
			c0.051-0.386,0.106-0.892,0.155-1.448C31.846,66.105,31.901,62.288,30.599,59.501z M29.019,43.895
			c-0.049-2.698,0.361-4.648,1.191-5.64c0.528-0.633,1.151-0.765,1.578-0.765c0.226,0,0.388,0.036,0.399,0.036l20.972,8.008
			l10.463,3.995l-0.343,12.43l-29.353-9.637l-1.549-0.508c-0.057-0.019-0.134-0.032-0.194-0.035
			C32.062,51.769,29.16,51.456,29.019,43.895z M60.597,100.7L29.696,90.554c-0.057-0.019-0.133-0.032-0.193-0.036
			c-0.123-0.01-3.026-0.322-3.167-7.882c-0.05-2.701,0.363-4.65,1.191-5.643c0.529-0.633,1.152-0.765,1.579-0.765
			c0.227,0,0.388,0.036,0.4,0.036l31.433,12.005L60.597,100.7z M101.089,87.925c0.049,0.556,0.103,1.063,0.154,1.448l-38.938,11.346
			l0.34-12.345l8.325-2.005l1.23,0.348l4.607-1.754l21.242-5.112l4.073-0.981C100.818,81.657,100.874,85.474,101.089,87.925z
			 M103.234,71.148c-0.071,0.002-0.142,0.013-0.21,0.037l-2.935,0.963l-27.964,9.183L71.783,68.9l9.174-3.505l22.215-8.485
			c0.003-0.002,1.168-0.305,2.024,0.714c0.828,0.992,1.239,2.942,1.189,5.64C106.243,70.824,103.34,71.138,103.234,71.148z"/>
	</g>
</g>
</svg>
