<?xml version="1.0" encoding="utf-8"?>
<!-- Generator: Adobe Illustrator 17.0.0, SVG Export Plug-In . SVG Version: 6.00 Build 0)  -->
<!DOCTYPE svg PUBLIC "-//W3C//DTD SVG 1.1//EN" "http://www.w3.org/Graphics/SVG/1.1/DTD/svg11.dtd">
<svg version="1.1" id="Capa_1" xmlns="http://www.w3.org/2000/svg" xmlns:xlink="http://www.w3.org/1999/xlink" x="0px" y="0px"
	 width="134.725px" height="131px" viewBox="0 0 134.725 131" enable-background="new 0 0 134.725 131" xml:space="preserve">
<rect fill="#4CBBFF" stroke="#000000" stroke-width="4" stroke-miterlimit="10" width="134.725" height="131"/>
<g id="Forma_1_2_">
	<g>
		<path d="M59.958,55.211h12.62c0.648-3.576,2.546-6.657,5.232-8.896c0.011,0,0.022,0,0.039,0c2.237-0.076,5.154-0.667,7.922-2.72
			c0.34-0.251,0.668-0.521,0.982-0.8c3.964-3.526,6.136-9.383,6.434-17.436c0.073-2.135-1.586-3.931-3.708-4.013
			c-2.319-0.118-3.919,1.585-3.997,3.723c-0.236,6.085-1.69,10.318-4.227,12.247c-0.553,0.425-1.14,0.715-1.704,0.91
			c-0.017,0.006-0.039,0.008-0.056,0.014c-1.67-1.599-3.98-2.379-5.538-2.379h-9.541H54.88c-3.498,0-6.279,3.523-6.341,7.389
			C54.366,44.677,58.882,49.405,59.958,55.211z M64.412,35.73c5.054,0,9.151-4.028,9.151-8.997s-4.097-8.997-9.151-8.997
			s-9.151,4.028-9.151,8.997S59.358,35.73,64.412,35.73z M63.231,78.409c0-6.981-2.998-9.932-7.158-9.932h-0.227h-9.42
			c5.204-0.763,9.193-5.164,9.193-10.495c0-5.857-4.828-10.611-10.799-10.611c-5.959,0-10.79,4.753-10.79,10.611
			c0,5.331,3.989,9.732,9.196,10.495h-9.418h-0.23c-4.166,0-7.545,4.472-7.545,9.093v14.136h37.199L63.231,78.409L63.231,78.409z
			 M76.539,57.982c0,5.331,3.992,9.732,9.193,10.495h-9.039h-0.615c-4.168,0-7.349,4.472-7.349,9.093v14.136h36.913V78.415
			c0-6.902-2.888-9.802-6.964-9.873c-0.059,0-0.053-0.059-0.104-0.059h-9.651c5.207-0.763,9.199-5.164,9.199-10.498
			c0-5.857-4.834-10.611-10.796-10.611C81.37,47.372,76.539,52.125,76.539,57.982z M23.006,97.774v9.121h88.714v-9.121H23.006z"/>
	</g>
</g>
</svg>
