<?xml version="1.0" encoding="utf-8"?>
<!-- Generator: Adobe Illustrator 17.0.0, SVG Export Plug-In . SVG Version: 6.00 Build 0)  -->
<!DOCTYPE svg PUBLIC "-//W3C//DTD SVG 1.1//EN" "http://www.w3.org/Graphics/SVG/1.1/DTD/svg11.dtd">
<svg version="1.1" id="Capa_1" xmlns="http://www.w3.org/2000/svg" xmlns:xlink="http://www.w3.org/1999/xlink" x="0px" y="0px"
	 width="945.5px" height="945.5px" viewBox="0 0 945.5 945.5" enable-background="new 0 0 945.5 945.5" xml:space="preserve">
<g>
	<path d="M535.503,372.048l42.7,61.9c4,5.8,12.5,5.8,16.5,0l42.699-61.9c4.601-6.6-0.199-15.7-8.199-15.7h-12.5
		c-3.7-38.3-13.301-72.1-28.601-100.8c-16.8-31.6-40.2-57-69.7-75.5c-32.899-20.6-65.899-27.8-85.1-30.3
		c-8.9-1.2-16.8,5.8-16.9,14.8l-0.1,30.3c0,7.4,5.4,13.7,12.7,14.9c13.8,2.1,37,7.7,59.5,22.4c38.399,25,61.1,66.7,67.8,124.2h-12.5
		C535.703,356.349,531.003,365.349,535.503,372.048z"/>
	<path d="M258.327,373.511h12.5c3.7,38.3,13.3,72.1,28.6,100.8c16.8,31.601,40.2,57,69.7,75.5c32.899,20.601,65.899,27.8,85.1,30.3
		c8.9,1.2,16.8-5.8,16.9-14.8l0.1-30.3c0-7.4-5.4-13.7-12.7-14.9c-13.9-2.1-37.1-7.7-59.5-22.4c-38.399-25-61.1-66.7-67.8-124.2
		h12.5c8.1,0,12.8-9,8.2-15.7l-42.7-61.8c-4-5.8-12.5-5.8-16.5,0l-42.7,61.9C245.527,364.511,250.227,373.511,258.327,373.511z"/>
</g>
<path d="M457.912,367.826"/>
<path d="M436.161,394.126"/>
<path d="M543.336,583.314c13.752,0,25.254-4.251,34.186-12.645c8.997-8.459,13.56-19.449,13.56-32.672
	c0-13.976-4.696-24.793-13.966-32.21c7.832-7.302,11.8-16.828,11.8-28.438c0-12.073-4.202-22.104-12.487-29.802
	c-8.203-7.691-18.87-11.594-31.695-11.594c-12.686,0-22.799,3.341-30.083,9.94c-7.203,6.517-11.974,16.688-14.216,30.249
	c-0.198,1.224,0.148,2.472,0.959,3.43c0.794,0.952,1.977,1.49,3.225,1.49h20.177c2.002,0,3.713-1.389,4.135-3.333
	c1.24-5.639,3.1-9.766,5.292-11.825c2.273-2.003,5.705-3.027,10.237-3.027c4.946,0,8.799,1.406,11.816,4.342
	c2.97,2.787,4.407,6.36,4.407,10.932c0,5.928-1.943,10.063-5.97,12.627c-1.266,0.827-4.896,2.2-15.019,2.2
	c-2.34,0-4.233,1.894-4.233,4.233v17.316c0,2.332,1.895,4.234,4.233,4.234c8.833,0,13.231,1.48,15.332,2.711
	c5.11,3.035,7.582,8.171,7.582,15.68c0,5.754-1.721,10.352-5.218,13.992c-3.498,3.547-7.839,5.276-13.265,5.276
	c-5.491,0-9.758-1.365-13.032-4.16c-3.284-2.811-5.309-6.854-6.195-12.379c-0.33-2.051-2.1-3.555-4.175-3.555H501.14
	c-1.199,0-2.324,0.505-3.126,1.389c-0.811,0.884-1.207,2.067-1.092,3.258c0.942,9.459,3.251,17.06,6.865,22.624
	C512.409,576.665,525.714,583.314,543.336,583.314z"/>
<path d="M284.191,280.072c0.728,1.381,2.133,2.294,3.709,2.294h17.341h36.724h36.187c1.62,0,2.969-0.93,3.679-2.257
	c0.323-0.595,0.554-1.245,0.554-1.977v-19.062c0-2.336-1.901-4.233-4.233-4.233h-40.918l14.993-17.739
	c5.97-7.054,10.725-12.937,14.546-17.978c3.919-5.165,6.937-9.729,8.989-13.517c2.447-4.42,4.109-8.94,5.135-13.513
	c0.76-3.319,1.224-6.664,1.224-10.026c0-12.66-4.681-23.424-13.877-31.982c-9.055-8.497-20.392-12.805-33.69-12.805
	c-27.355,0-43.641,15.98-47.107,46.217c-0.137,1.195,0.249,2.394,1.05,3.304c0.807,0.896,1.947,1.414,3.159,1.414h20.19
	c2.142,0,3.944-1.592,4.202-3.717c2.249-18.275,11.99-20.392,19.119-20.392c5.416,0,9.808,1.695,13.43,5.165
	c3.581,3.44,5.317,7.596,5.317,12.702c0,2.924-1.05,6.318-3.034,10.113c-0.431,0.803-0.843,1.609-1.357,2.457
	c-1.539,2.631-3.836,5.974-6.821,9.94c-3.068,4.081-6.888,8.914-11.412,14.471l-46.652,56.48c-1.043,1.26-1.262,3.013-0.558,4.498
	C284.088,279.997,284.159,280.021,284.191,280.072z"/>
</svg>
