<?xml version="1.0" encoding="utf-8"?>
<!-- Generator: Adobe Illustrator 17.0.0, SVG Export Plug-In . SVG Version: 6.00 Build 0)  -->
<!DOCTYPE svg PUBLIC "-//W3C//DTD SVG 1.1//EN" "http://www.w3.org/Graphics/SVG/1.1/DTD/svg11.dtd">
<svg version="1.1" id="Capa_1" xmlns="http://www.w3.org/2000/svg" xmlns:xlink="http://www.w3.org/1999/xlink" x="0px" y="0px"
	 width="134.725px" height="131px" viewBox="0 0 134.725 131" enable-background="new 0 0 134.725 131" xml:space="preserve">
<rect fill="#4CBBFF" stroke="#000000" stroke-width="4" stroke-miterlimit="10" width="134.725" height="131"/>
<g>
	<g>
		<g>
			<path d="M106.357,93.904c0-9-7.336-18.806-7.336-18.806c-2.843-4.039-6.064-8.616-12.963-11.316
				c-0.128-0.05-0.786-0.28-1.004-0.352l-7.491-2.447l-3.599-2.153l-5.783,4.081l2.38,12.174l-2.716,0.532l-2.716-0.532
				l2.381-12.174l-5.783-4.081l-3.6,2.153l-7.492,2.447c-0.218,0.072-0.876,0.302-1.003,0.352
				c-6.898,2.699-10.12,7.277-12.963,11.316c0,0-6.134,8.894-7.335,18.806c-0.013,0.106-0.016,0.212-0.016,0.319
				c0,2.935,3.58,5.322,7.98,5.322c0.321,0,0.641-0.018,0.959-0.052c2.222-0.243,4.135-0.747,5.857-1.382l22.981,4.497
				c0.058,0.011,0.116,0.02,0.175,0.027l0.027,0.004c0.047,0.007,0.094,0.015,0.128,0.018c0.148,0.016,0.286,0.024,0.423,0.024
				c0.137,0,0.275-0.008,0.408-0.023c0.05-0.004,0.099-0.011,0.165-0.022c0.06-0.008,0.121-0.017,0.179-0.028l22.981-4.498
				c1.722,0.635,3.635,1.14,5.856,1.382c0.317,0.035,0.638,0.052,0.959,0.052c4.4,0,7.979-2.387,7.979-5.322
				C106.372,94.116,106.357,94.011,106.357,93.904z M65.021,98.045l-14.988-2.933c1.73-1.549,1.857-3.785,0.116-5.446
				c-0.859-0.819-2.038-1.368-3.322-1.629V75.66l18.194,3.56L65.021,98.045L65.021,98.045z M88.864,88.037
				c-1.285,0.26-2.464,0.809-3.323,1.629c-1.741,1.661-1.615,3.898,0.116,5.446L70.67,98.045V79.221l18.194-3.56V88.037
				L88.864,88.037z"/>
			<path d="M67.845,58.83c7.586,0,17.763-6.725,17.936-18.001c0.11-7.825-5.142-12.508-17.936-12.508S49.798,33.004,49.91,40.829
				C50.082,52.106,58.966,58.83,67.845,58.83z M64.24,43.972c9.276,0.701,17.363-8.503,17.231-0.262
				c-0.078,4.933-6.528,12.382-13.625,12.382c-7.449,0-12.587-6.191-13.624-12.38C53.098,37.001,70.46,38.53,64.24,43.972z"/>
		</g>
	</g>
</g>
</svg>
