<?xml version="1.0" encoding="utf-8"?>
<!-- Generator: Adobe Illustrator 17.0.0, SVG Export Plug-In . SVG Version: 6.00 Build 0)  -->
<!DOCTYPE svg PUBLIC "-//W3C//DTD SVG 1.1//EN" "http://www.w3.org/Graphics/SVG/1.1/DTD/svg11.dtd">
<svg version="1.1" id="Capa_1" xmlns="http://www.w3.org/2000/svg" xmlns:xlink="http://www.w3.org/1999/xlink" x="0px" y="0px"
	 width="134.725px" height="131px" viewBox="0 0 134.725 131" enable-background="new 0 0 134.725 131" xml:space="preserve">
<rect fill="#4CBBFF" stroke="#000000" stroke-width="4" stroke-miterlimit="10" width="134.725" height="131"/>
<g>
	<g>
		<path d="M107.366,38.809h-5.885c-8.533-4.288-15.778-6.492-21.553-6.492c-7.479,0-10.981,3.669-12.565,6.468
			c-1.583-2.799-5.084-6.468-12.565-6.468c-5.775,0-13.02,2.206-21.555,6.492H27.36c-2.503,0-4.533,2.285-4.533,5.103V93.58
			c0,2.819,2.03,5.103,4.533,5.103h80.006c2.504,0,4.533-2.284,4.533-5.103V43.912C111.898,41.094,109.869,38.809,107.366,38.809z
			 M66.136,41.906c-0.013,0.079-0.019,0.158-0.019,0.238v46.844c-1.982-2.577-5.302-4.548-10.857-4.548
			c-9.916,0-22.364,6.121-26.809,8.488V44.194c3.808-2.182,7.362-3.965,10.676-5.385c6.084-2.605,11.339-3.941,15.67-3.941
			c5.314,0,8.218,2.001,9.789,3.941c0.907,1.119,1.374,2.217,1.594,2.895C66.155,41.818,66.138,41.899,66.136,41.906z
			 M106.274,92.929c-4.444-2.367-16.892-8.488-26.808-8.488c-5.557,0-8.875,1.97-10.858,4.548c-0.073,0.094-0.157,0.183-0.225,0.279
			V42.289c0.023-0.111,0.075-0.309,0.163-0.575c0.224-0.677,0.699-1.779,1.616-2.904c1.58-1.939,4.484-3.941,9.765-3.941
			c4.331,0,9.584,1.336,15.67,3.941c3.317,1.42,6.869,3.203,10.675,5.385L106.274,92.929L106.274,92.929z"/>
	</g>
</g>
</svg>
