<?xml version="1.0" encoding="iso-8859-1"?>
<!-- Generator: Adobe Illustrator 18.1.1, SVG Export Plug-In . SVG Version: 6.00 Build 0)  -->
<svg version="1.1" id="Capa_1" xmlns="http://www.w3.org/2000/svg" xmlns:xlink="http://www.w3.org/1999/xlink" x="0px" y="0px"
	 viewBox="0 0 83.967 83.967" style="enable-background:new 0 0 83.967 83.967;" xml:space="preserve">
<g id="_x37_7_Essential_Icons_34_">
	<path id="Medal" d="M73.306,42.9l-12.8-1.7l8.5-38.8c0.2-1.2-0.7-2.4-2-2.4h-50c-1.3,0-2.2,1.2-2,2.4l8.6,38.8l-12.9,1.7
		c-1.6,0.2-2.4,2.2-1.1,3.4l15.1,14.5l-3.8,20.8c-0.3,1.7,1.5,2.9,2.9,2.1l18.2-10l18.2,10.1c-2.2-1.3,2.9,2.3,2.9-2.1l-3.8-20.8
		l15.1-14.5C75.606,45.2,74.906,43.2,73.306,42.9z M44.006,4h20.5l-8.1,36.7l-3.7-0.5l-8.7-18.7V4z M19.506,4h20.5v17.5l-8.7,18.7
		l-3.7,0.5L19.506,4z M55.806,58.7c-0.5,0.5-0.7,1.1-0.6,1.8l3.2,17.7l-15.4-8.6c-0.3-0.2-0.6-0.3-1-0.3c-0.3,0-0.7,0.1-1,0.3
		l-15.5,8.6l3.2-17.7c0.1-0.7-0.1-1.3-0.6-1.8l-12.7-12.4l17.5-2.3c0.7-0.1,1.3-0.5,1.5-1.1l7.6-16.2l7.5,16.2
		c0.3,0.6,0.9,1,1.5,1.1l17.5,2.3L55.806,58.7z"/>
</g>
<g>
</g>
<g>
</g>
<g>
</g>
<g>
</g>
<g>
</g>
<g>
</g>
<g>
</g>
<g>
</g>
<g>
</g>
<g>
</g>
<g>
</g>
<g>
</g>
<g>
</g>
<g>
</g>
<g>
</g>
</svg>
