<?xml version="1.0" encoding="utf-8"?>
<!-- Generator: Adobe Illustrator 17.0.0, SVG Export Plug-In . SVG Version: 6.00 Build 0)  -->
<!DOCTYPE svg PUBLIC "-//W3C//DTD SVG 1.1//EN" "http://www.w3.org/Graphics/SVG/1.1/DTD/svg11.dtd">
<svg version="1.1" id="Capa_1" xmlns="http://www.w3.org/2000/svg" xmlns:xlink="http://www.w3.org/1999/xlink" x="0px" y="0px"
	 width="467.514px" height="467.514px" viewBox="0 0 467.514 467.514" enable-background="new 0 0 467.514 467.514"
	 xml:space="preserve">
<g>
	<g>
		<g>
			<path fill="#56C0E0" stroke="#000000" stroke-miterlimit="10" d="M80.113,245.042c0,0,1.607,18.003,13.182,22.5
				c3.966,1.548,6.816,3.427,8.928,5.239l11.762-9.361l2.249-1.791l1.359,2.53c0.042,0.084,1.689,3.094,4.788,7.657
				c0.303-0.154,0.575-0.292,0.821-0.411c3.865-1.933,3.526-13.188-9.655-17.685c-13.182-4.5-17.359-23.791-17.359-23.791
				c-4.824,9.001,1.929,24.756,1.929,24.756c-0.141,0.005-0.274,0.01-0.413,0.01C89.143,254.695,80.113,245.042,80.113,245.042z"/>
			<path fill="#56C0E0" stroke="#000000" stroke-miterlimit="10" d="M221.888,375.572c0,0,13.823,2.567,29.257-12.865l-1.699-3.247
				c-2.834,2.119-4.429,3.442-4.485,3.478l-2.28,1.911l-1.384-2.633l-7.787-14.863c-2.817,1.719-6.621,3.14-11.626,3.14
				c-5.005,0-8.81-1.42-11.625-3.14l-7.788,14.863l-1.383,2.633l-2.284-1.911c-0.048-0.042-1.645-1.369-4.482-3.478l-1.699,3.247
				C208.065,378.138,221.888,375.572,221.888,375.572z"/>
			<path fill="#56C0E0" stroke="#000000" stroke-miterlimit="10" d="M162.413,337.311c14.821,7.089,26.748,15.307,33.043,19.992
				c3.128,2.329,4.894,3.797,4.894,3.797l7.921-15.125l2.688-5.127c-9.325-10.932-37.616-18.65-60.441-35.689
				c-12.399-9.254-21.639-20.195-27.523-28.279c-0.494-0.678-0.965-1.335-1.409-1.972c-0.485-0.696-0.952-1.359-1.378-1.994
				c-3.114-4.61-4.731-7.613-4.731-7.613l-11.492,9.147l-1.868,1.482l-1.891,1.499l-0.503,0.401
				C100.688,295.189,140.23,326.701,162.413,337.311z"/>
			<path fill="#56C0E0" stroke="#000000" stroke-miterlimit="10" d="M221.888,89.978h-98.591v136.737
				c0,0-3.859,41.576,36.432,66.009c40.29,24.434,58.727,33.006,62.153,44.582c3.43-11.576,21.86-20.149,62.153-44.582
				c40.293-24.433,36.432-66.009,36.432-66.009V89.978H221.888z"/>
			<path fill="#56C0E0" stroke="#000000" stroke-miterlimit="10" d="M363.662,245.042c0,0-9.028,9.653-17.589,9.653
				c-0.14,0-0.272-0.005-0.412-0.01c0,0,6.751-15.755,1.93-24.756c0,0-4.181,19.291-17.361,23.791
				c-13.18,4.497-13.518,15.752-9.659,17.685c0.25,0.115,0.52,0.257,0.826,0.411c3.101-4.563,4.742-7.574,4.788-7.657l1.36-2.53
				l2.249,1.791l11.762,9.361c2.109-1.808,4.957-3.691,8.926-5.239C362.055,263.045,363.662,245.042,363.662,245.042z"/>
			<path fill="#56C0E0" stroke="#000000" stroke-miterlimit="10" d="M344.052,277.832l-0.509-0.401l-1.884-1.499l-1.867-1.491
				l-11.493-9.141c0,0-1.617,3.003-4.73,7.615c-0.431,0.632-0.894,1.301-1.376,1.992c-0.45,0.637-0.919,1.288-1.416,1.972
				c-5.876,8.083-15.116,19.025-27.519,28.283c-22.824,17.038-51.117,24.751-60.442,35.684l2.689,5.121l7.919,15.13
				c0,0,1.771-1.467,4.896-3.794c6.303-4.691,18.224-12.901,33.041-19.995C303.544,326.701,343.087,295.189,344.052,277.832z"/>
		</g>
	</g>
	
		<text transform="matrix(0.8308 0.5566 -0.5566 0.8308 123.1887 304.5388)" fill="#56C0E0" stroke="#000000" stroke-miterlimit="10" font-family="'Algerian'" font-size="19.0211">Respeto</text>
	
		<text transform="matrix(0.819 -0.5738 0.5738 0.819 249.7567 353.3423)" fill="#56C0E0" stroke="#000000" stroke-miterlimit="10" font-family="'Algerian'" font-size="19.0212">Disciplina</text>
	<line fill="#56C0E0" stroke="#000000" stroke-miterlimit="10" x1="123.298" y1="180.6" x2="320.569" y2="181.436"/>
	<rect x="122.812" y="180.6" fill="#56C0E0" stroke="#000000" stroke-miterlimit="10" width="197.756" height="0.836"/>
	
		<rect x="143.377" y="257.844" transform="matrix(-0.0082 -1 1 -0.0082 -35.4182 481.3939)" fill="#56C0E0" stroke="#000000" stroke-miterlimit="10" width="155.301" height="0.836"/>
	<g>
		<path fill="#56C0E0" stroke="#000000" stroke-miterlimit="10" d="M250.559,147.332l-7.171-21.997h-1.817v-1.203
			c3.554-0.862,3.615-4.31,3.615-4.31s-1.347,1.556-3.615,2.159v-0.952h-1.418v1.184c-0.059,0.002-0.113,0.017-0.173,0.019
			c-3.231,0.077-4.688-5.198-8.753-5.198c-3.786,0-8.014,2.217-10.748,2.524v-6.002c1.934-0.297,3.413-1.923,3.413-3.907
			c0.004-2.189-1.804-3.967-4.031-3.967c-2.225,0-4.031,1.777-4.031,3.967c0,2.091,1.652,3.787,3.74,3.941v5.923
			c-2.734-0.425-6.791-2.479-10.443-2.479c-4.066,0-5.518,5.275-8.751,5.198c-0.262-0.009-0.503-0.049-0.75-0.081v-1.122h-1.418
			v0.796c-1.923-0.687-3.036-2.001-3.036-2.001s0.061,3.053,3.036,4.127v1.385h-1.815l-7.296,21.999h-4.174
			c0,0,2.994,5.631,13.719,5.631s13.719-5.631,13.719-5.631h-3.749l-7.166-21.997h-1.819v-1.058c0.286,0.03,0.585,0.047,0.909,0.047
			c5.284,0,6.071-3.297,8.99-3.297c2.626,0,5.703,3.209,9.495,3.858c0.163,0.045,0.958-0.009,0.72,0.049l-0.124,12.327l-2.409,4.801
			l0.082,14.463h-6.622v2.558l-5.323,8.614h30.276l-6.505-8.731v-2.445h-5.794v-14.331l-2.439-5.044l-0.002-12.242
			c0.219-0.002,0.21,0.045,0.462-0.021c3.792-0.649,6.869-3.858,9.495-3.858c2.921,0,3.706,3.297,8.99,3.297
			c0.121,0,0.221-0.013,0.33-0.017v1.024h-1.813l-7.296,21.997h-4.176c0,0,2.994,5.631,13.719,5.631
			c10.724,0,13.719-5.627,13.719-5.627H250.559z M198.208,147.332h-7.617l6.83-20.597h0.787V147.332z M200.411,126.732l6.713,20.595
			h-7.498v-20.595H200.411z M240.156,147.332h-7.619l6.83-20.597h0.787v20.597H240.156z M241.574,147.332v-20.6h0.783l6.713,20.595
			L241.574,147.332L241.574,147.332z"/>
	</g>
	<g>
		<g>
			<polygon fill="#56C0E0" stroke="#000000" stroke-miterlimit="10" points="170.092,279.831 174.997,279.878 182.011,245.551 
				163.034,245.551 			"/>
			<path fill="#56C0E0" stroke="#000000" stroke-miterlimit="10" d="M180.611,232.78c-0.148-0.021-0.288-0.042-0.441-0.058
				c-0.251-0.032-0.507-0.055-0.766-0.087c-0.245-0.029-0.491-0.055-0.742-0.077c-0.232-0.026-0.47-0.048-0.71-0.066
				c-0.296-0.026-0.597-0.05-0.9-0.069c-0.219-0.016-0.438-0.034-0.66-0.045c-0.356-0.024-0.715-0.042-1.08-0.055
				c-0.187-0.008-0.375-0.018-0.565-0.024c-0.56-0.021-1.13-0.032-1.711-0.032c-0.581,0-1.151,0.011-1.711,0.029
				c-0.193,0.008-0.377,0.013-0.568,0.024c-0.362,0.005-0.726,0.021-1.077,0.042c-0.224,0.013-0.446,0.026-0.668,0.045
				c-0.301,0.021-0.597,0.042-0.89,0.061c-0.24,0.021-0.48,0.042-0.718,0.061c-0.245,0.024-0.488,0.05-0.729,0.069
				c-0.261,0.032-0.525,0.055-0.779,0.084c-0.137,0.016-0.269,0.032-0.401,0.053c-5.884,0.723-9.661,2.033-9.661,2.033l6.734,9.107
				h20.21l7.455-8.893C190.239,234.982,186.474,233.57,180.611,232.78z"/>
			<path fill="#56C0E0" stroke="#000000" stroke-miterlimit="10" d="M183.798,231.548v-8.286h-21.522v8.204
				c2.914-0.496,6.586-0.919,10.762-0.919C177.209,230.552,180.881,231.006,183.798,231.548z"/>
			<path fill="#56C0E0" stroke="#000000" stroke-miterlimit="10" d="M175.512,208.6c3.801,3.651,5,9.413,2.901,12.586
				c2.254,0.805,9.553-6.451,3.846-16.453c-3.067-5.446-9.677-10.865-12.285-8.92c2.175,3.252,2.252,7.08-1.095,9.59
				c-3.35,2.51-6.003,10.274-1.608,15.833C167.576,215.078,175.504,212.41,175.512,208.6z"/>
		</g>
	</g>
	<g>
		<g>
			<path fill="#56C0E0" stroke="#000000" stroke-miterlimit="10" d="M298.684,205.009h-4.678
				c-6.784-3.028-12.544-4.585-17.135-4.585c-5.946,0-8.73,2.591-9.989,4.568c-1.259-1.977-4.042-4.568-9.989-4.568
				c-4.591,0-10.351,1.558-17.137,4.585h-4.678c-1.99,0-3.604,1.613-3.604,3.604v35.077c0,1.991,1.614,3.604,3.604,3.604h63.606
				c1.99,0,3.603-1.613,3.603-3.604v-35.077C302.287,206.622,300.674,205.009,298.684,205.009z M265.906,207.196
				c-0.011,0.056-0.015,0.112-0.015,0.168v33.082c-1.576-1.82-4.215-3.212-8.632-3.212c-7.884,0-17.78,4.323-21.313,5.994v-34.417
				c3.027-1.541,5.853-2.8,8.488-3.803c4.837-1.84,9.015-2.783,12.458-2.783c4.225,0,6.533,1.413,7.783,2.783
				c0.721,0.791,1.092,1.566,1.268,2.045C265.921,207.134,265.907,207.191,265.906,207.196z M297.816,243.229
				c-3.533-1.672-13.429-5.994-21.313-5.994c-4.418,0-7.056,1.391-8.632,3.212c-0.058,0.067-0.125,0.129-0.179,0.197v-33.177
				c0.019-0.078,0.06-0.218,0.13-0.406c0.178-0.478,0.556-1.256,1.285-2.051c1.256-1.37,3.565-2.783,7.763-2.783
				c3.443,0,7.619,0.943,12.458,2.783c2.637,1.003,5.461,2.262,8.487,3.803L297.816,243.229L297.816,243.229z"/>
		</g>
	</g>
	<text transform="matrix(1 -0.0087 0.0087 1 70.2929 394.6041)"><tspan x="0" y="0" fill="#56C0E0" stroke="#000000" stroke-miterlimit="10" font-family="'Algerian'" font-size="19.0211">INSTITUCIÓN EDUCATIVA GENERAL</tspan><tspan x="98.263" y="22.825" fill="#56C0E0" stroke="#000000" stroke-miterlimit="10" font-family="'Algerian'" font-size="19.0211">SANTANDER</tspan></text>
</g>
</svg>
