<?xml version="1.0" encoding="iso-8859-1"?>
<!-- Generator: Adobe Illustrator 16.0.0, SVG Export Plug-In . SVG Version: 6.00 Build 0)  -->
<!DOCTYPE svg PUBLIC "-//W3C//DTD SVG 1.1//EN" "http://www.w3.org/Graphics/SVG/1.1/DTD/svg11.dtd">
<svg version="1.1" id="Capa_1" xmlns="http://www.w3.org/2000/svg" xmlns:xlink="http://www.w3.org/1999/xlink" x="0px" y="0px"
	 width="32px" height="32px" viewBox="0 0 32 32" style="enable-background:new 0 0 32 32;" xml:space="preserve">
<g>
	<g>
		<polygon points="14.884,31.982 16.742,32 19.399,18.996 12.21,18.996 		"/>
		<path d="M18.869,14.158c-0.056-0.008-0.109-0.016-0.167-0.022c-0.095-0.012-0.192-0.021-0.29-0.033
			c-0.093-0.011-0.186-0.021-0.281-0.029c-0.088-0.01-0.178-0.018-0.269-0.025c-0.112-0.01-0.226-0.019-0.341-0.026
			c-0.083-0.006-0.166-0.013-0.25-0.017c-0.135-0.009-0.271-0.016-0.409-0.021c-0.071-0.003-0.142-0.007-0.214-0.009
			c-0.212-0.008-0.428-0.012-0.648-0.012c-0.22,0-0.436,0.004-0.648,0.011c-0.073,0.003-0.143,0.005-0.215,0.009
			C15,13.986,14.862,13.992,14.729,14c-0.085,0.005-0.169,0.01-0.253,0.017c-0.114,0.008-0.226,0.016-0.337,0.023
			c-0.091,0.008-0.182,0.016-0.272,0.023c-0.093,0.009-0.185,0.019-0.276,0.026c-0.099,0.012-0.199,0.021-0.295,0.032
			c-0.052,0.006-0.102,0.012-0.152,0.02c-2.229,0.274-3.66,0.77-3.66,0.77l2.551,3.45h7.656l2.824-3.369
			C22.516,14.992,21.09,14.457,18.869,14.158z"/>
		<path d="M20.076,13.691v-3.139h-8.153v3.108c1.104-0.188,2.495-0.348,4.077-0.348C17.58,13.314,18.971,13.486,20.076,13.691z"/>
		<path d="M16.937,4.998c1.44,1.383,1.894,3.566,1.099,4.768c0.854,0.305,3.619-2.444,1.457-6.233
			c-1.162-2.063-3.666-4.116-4.654-3.379c0.824,1.232,0.853,2.682-0.415,3.633c-1.269,0.951-2.274,3.892-0.609,5.998
			C13.931,7.452,16.934,6.441,16.937,4.998z"/>
	</g>
</g>
<g>
</g>
<g>
</g>
<g>
</g>
<g>
</g>
<g>
</g>
<g>
</g>
<g>
</g>
<g>
</g>
<g>
</g>
<g>
</g>
<g>
</g>
<g>
</g>
<g>
</g>
<g>
</g>
<g>
</g>
</svg>
