<?xml version="1.0" encoding="utf-8"?>
<!-- Generator: Adobe Illustrator 17.0.0, SVG Export Plug-In . SVG Version: 6.00 Build 0)  -->
<!DOCTYPE svg PUBLIC "-//W3C//DTD SVG 1.1//EN" "http://www.w3.org/Graphics/SVG/1.1/DTD/svg11.dtd">
<svg version="1.1" id="Capa_1" xmlns="http://www.w3.org/2000/svg" xmlns:xlink="http://www.w3.org/1999/xlink" x="0px" y="0px"
	 width="134.725px" height="131px" viewBox="0 0 134.725 131" enable-background="new 0 0 134.725 131" xml:space="preserve">
<rect x="0" fill="#4CBBFF" stroke="#000000" stroke-width="4" stroke-miterlimit="10" width="134.725" height="131"/>
<g>
	<g>
		<path d="M116.843,58.383c-3.56,0-6.445,2.555-6.445,5.706c0,21.184-19.468,38.418-43.396,38.418S23.606,85.272,23.606,64.089
			S43.074,25.67,67.002,25.67c1.537,0,3.065,0.072,4.582,0.213l-3.799,6.042c-0.448,0.713-0.432,1.582,0.041,2.282
			c0.466,0.689,1.306,1.11,2.212,1.11c0.014,0,0.027,0,0.041,0l31.868-0.443c0.921-0.013,1.764-0.459,2.212-1.172
			c0.448-0.713,0.432-1.582-0.04-2.282L87.753,7.206c-0.473-0.699-1.328-1.128-2.252-1.11c-0.921,0.013-1.764,0.459-2.212,1.172
			l-5.024,7.991c-3.69-0.664-7.458-1.001-11.261-1.001c-15.034,0-29.169,5.183-39.8,14.595S10.717,50.778,10.717,64.088
			c0,13.31,5.855,25.823,16.486,35.235s24.765,14.595,39.8,14.595c15.034,0,29.169-5.183,39.8-14.595s16.486-21.925,16.486-35.235
			C123.288,60.938,120.402,58.383,116.843,58.383z"/>
	</g>
</g>
</svg>
