<?xml version="1.0" encoding="utf-8"?>
<!-- Generator: Adobe Illustrator 17.0.0, SVG Export Plug-In . SVG Version: 6.00 Build 0)  -->
<!DOCTYPE svg PUBLIC "-//W3C//DTD SVG 1.1//EN" "http://www.w3.org/Graphics/SVG/1.1/DTD/svg11.dtd">
<svg version="1.1" id="Capa_1" xmlns="http://www.w3.org/2000/svg" xmlns:xlink="http://www.w3.org/1999/xlink" x="0px" y="0px"
	 width="134.725px" height="131px" viewBox="0 0 134.725 131" enable-background="new 0 0 134.725 131" xml:space="preserve">
<rect fill="#2D3E50" width="134.725" height="131"/>
<g>
	<g>
		<g>
			<path fill="#FFFFFF" d="M105.601,65.141c-2.67,0-4.834,2.029-4.834,4.531c0,16.822-14.602,30.507-32.55,30.507
				s-32.55-13.686-32.55-30.507s14.602-30.508,32.55-30.508c1.153,0,2.299,0.058,3.437,0.169l-2.849,4.798
				c-0.336,0.566-0.324,1.256,0.031,1.812c0.349,0.547,0.98,0.882,1.659,0.882c0.01,0,0.021,0,0.031,0l23.903-0.352
				c0.691-0.01,1.323-0.365,1.659-0.931c0.336-0.566,0.324-1.257-0.03-1.812L83.782,24.502c-0.355-0.555-0.996-0.896-1.689-0.881
				c-0.691,0.01-1.323,0.365-1.659,0.931l-3.769,6.346c-2.768-0.527-5.594-0.795-8.446-0.795c-11.277,0-21.879,4.116-29.853,11.589
				S26,59.102,26,69.671c0,10.569,4.391,20.506,12.365,27.979s18.576,11.589,29.852,11.589c11.277,0,21.879-4.116,29.853-11.589
				s12.366-17.41,12.366-27.98C110.435,67.169,108.271,65.141,105.601,65.141z"/>
			<path fill="#FFFFFF" d="M89.115,89.045c-0.535-1.289-0.903-2.109-0.903-2.109c-0.484-1.084-1.646-1.777-2.756-2.204l-7.504-3.238
				l-3.605-2.849l-5.793,5.4l2.09,13.095C77.843,96.586,84.315,93.593,89.115,89.045z"/>
			<path fill="#FFFFFF" d="M50.979,84.732c-1.11,0.427-2.318,1.168-2.756,2.204c0,0-0.367,0.82-0.903,2.109
				c4.8,4.548,11.272,7.541,18.47,8.095l2.09-13.095l-5.792-5.4l-3.605,2.849L50.979,84.732z"/>
			<path fill="#FFFFFF" d="M81.749,60.602c0.083-7.799-3.88-12.466-13.532-12.466s-13.616,4.667-13.532,12.466
				c0.13,11.239,5.857,17.94,13.532,17.94C75.892,78.542,81.619,71.84,81.749,60.602z"/>
		</g>
	</g>
	<g>
	</g>
	<g>
	</g>
	<g>
	</g>
	<g>
	</g>
	<g>
	</g>
	<g>
	</g>
	<g>
	</g>
	<g>
	</g>
	<g>
	</g>
	<g>
	</g>
	<g>
	</g>
	<g>
	</g>
	<g>
	</g>
	<g>
	</g>
	<g>
	</g>
</g>
</svg>
