<?xml version="1.0" encoding="utf-8"?>
<!-- Generator: Adobe Illustrator 17.0.0, SVG Export Plug-In . SVG Version: 6.00 Build 0)  -->
<!DOCTYPE svg PUBLIC "-//W3C//DTD SVG 1.1//EN" "http://www.w3.org/Graphics/SVG/1.1/DTD/svg11.dtd">
<svg version="1.1" id="Capa_1" xmlns="http://www.w3.org/2000/svg" xmlns:xlink="http://www.w3.org/1999/xlink" x="0px" y="0px"
	 width="134.725px" height="131px" viewBox="0 0 134.725 131" enable-background="new 0 0 134.725 131" xml:space="preserve">
<rect fill="#2D3E50" width="134.725" height="131"/>
<g>
	<path fill="#FFFFFF" d="M62.76,63.303c11.619,0,21.038-9.396,21.038-20.987S74.379,21.329,62.76,21.329
		s-21.038,9.396-21.038,20.987S51.141,63.303,62.76,63.303z M72.726,50.646c-0.957,3.157-5.057,5.53-9.97,5.53
		s-9.013-2.373-9.97-5.53H72.726z M107.013,93.698v2.895c0,0.799-0.649,1.447-1.451,1.447h-8.706v8.684
		c0,0.799-0.649,1.447-1.451,1.447h-2.902c-0.801,0-1.451-0.648-1.451-1.447V98.04h-8.706c-0.801,0-1.451-0.648-1.451-1.447v-2.895
		c0-0.799,0.649-1.447,1.451-1.447h8.706v-8.684c0-0.799,0.649-1.447,1.451-1.447h2.902c0.801,0,1.451,0.648,1.451,1.447v8.684
		h8.706C106.364,92.25,107.013,92.898,107.013,93.698z M77.995,93.698v2.895c0,0.769,0.218,1.481,0.571,2.108
		c-4.382,0.475-9.604,0.786-15.806,0.786c-20.285,0-30.212-3.307-33.852-4.922c-0.939-0.417-1.696-1.609-1.696-2.634v-6.918
		c0-10.367,7.912-18.967,18.008-20.119c0.307-0.035,0.762,0.096,1.012,0.277c4.655,3.362,10.354,5.368,16.527,5.368
		s11.872-2.007,16.527-5.368c0.25-0.18,0.705-0.312,1.012-0.277c8.356,0.953,15.202,7.015,17.318,14.952
		c-0.65-0.387-1.401-0.623-2.211-0.623h-2.902c-2.4,0-4.353,1.948-4.353,4.342v5.79h-5.804
		C79.947,89.356,77.995,91.303,77.995,93.698z"/>
</g>
</svg>
