<?xml version="1.0" encoding="utf-8"?>
<!-- Generator: Adobe Illustrator 17.0.0, SVG Export Plug-In . SVG Version: 6.00 Build 0)  -->
<!DOCTYPE svg PUBLIC "-//W3C//DTD SVG 1.1//EN" "http://www.w3.org/Graphics/SVG/1.1/DTD/svg11.dtd">
<svg version="1.1" id="Capa_1" xmlns="http://www.w3.org/2000/svg" xmlns:xlink="http://www.w3.org/1999/xlink" x="0px" y="0px"
	 width="134.725px" height="131px" viewBox="0 0 134.725 131" enable-background="new 0 0 134.725 131" xml:space="preserve">
<rect fill="#2D3E50" width="134.725" height="131"/>
<g>
	<g>
		<g>
			<path fill="#FFFFFF" d="M105.028,71.18c-2.791-3.134-6.479-5.043-10.393-5.446c3.379-3.384,5.512-8.27,5.512-13.728
				c0-10.211-7.433-18.485-16.608-18.485c-8.763,0-15.937,7.555-16.56,17.13c7.796,3.754,13.266,12.401,13.266,22.441
				c0,3.666-0.749,7.249-2.143,10.501c2.007,1.168,3.858,2.677,5.471,4.489c4.136,4.636,6.486,11.045,6.441,17.579l-0.004,0.133
				l-0.004,0.113l-0.146,3.092h19.893l0.164-24.489C109.951,79.516,108.193,74.725,105.028,71.18z"/>
			<path fill="#FFFFFF" d="M69.382,86.825c3.378-3.382,5.517-8.27,5.517-13.728c0-10.213-7.437-18.489-16.61-18.489
				c-9.175,0-16.61,8.276-16.61,18.489c0,5.448,2.13,10.332,5.503,13.716c-8.636,0.745-15.457,8.705-15.52,18.507L31.498,109h25.253
				h27.751l0.164-3.404c0.032-4.993-1.727-9.784-4.891-13.329C76.981,89.131,73.295,87.228,69.382,86.825z"/>
			<path fill="#FFFFFF" d="M38.728,40.779v6.868c0,2.844,2.077,5.154,4.634,5.154c2.56,0,4.634-2.31,4.634-5.154v-6.868h6.163
				c2.557,0,4.632-2.312,4.632-5.158c0-2.844-2.075-5.156-4.632-5.156h-6.163v-6.767c0-2.846-2.073-5.154-4.634-5.154
				c-2.557,0-4.634,2.308-4.634,5.154v6.765h-6.081c-2.56,0-4.632,2.312-4.632,5.156c0,2.846,2.072,5.158,4.632,5.158h6.081
				L38.728,40.779L38.728,40.779z"/>
		</g>
	</g>
</g>
</svg>
