<?xml version="1.0" encoding="utf-8"?>
<!-- Generator: Adobe Illustrator 17.0.0, SVG Export Plug-In . SVG Version: 6.00 Build 0)  -->
<!DOCTYPE svg PUBLIC "-//W3C//DTD SVG 1.1//EN" "http://www.w3.org/Graphics/SVG/1.1/DTD/svg11.dtd">
<svg version="1.1" id="Capa_1" xmlns="http://www.w3.org/2000/svg" xmlns:xlink="http://www.w3.org/1999/xlink" x="0px" y="0px"
	 width="134.725px" height="131px" viewBox="0 0 134.725 131" enable-background="new 0 0 134.725 131" xml:space="preserve">
<rect fill="#2D3E50" width="134.725" height="131"/>
<g>
	<g>
		<g>
			<path fill="#FFFFFF" d="M79.072,86.493c-11.044-4.441-14.573-8.19-14.573-16.213c0-4.817,3.372-3.244,4.852-12.064
				c0.614-3.659,3.593-0.059,4.162-8.412c0-3.329-1.626-4.156-1.626-4.156s0.826-4.927,1.15-8.718
				C73.439,32.205,70.565,20,55.237,20s-18.202,12.205-17.8,16.929c0.324,3.791,1.15,8.718,1.15,8.718s-1.626,0.828-1.626,4.156
				c0.57,8.353,3.548,4.754,4.161,8.412c1.482,8.82,4.854,7.248,4.854,12.064c0,8.023-3.528,11.772-14.573,16.213
				c-1.33,0.534-4.5,1.366-7.194,2.663V109h70.924c0,0,0-7.314,0-10.409C95.132,95.493,90.15,90.949,79.072,86.493z M99.564,59.556
				V44.722h-8.865v14.833H77.401v9.889h13.298v14.833h8.865V69.444h13.298v-9.889H99.564z"/>
		</g>
	</g>
	<g>
	</g>
	<g>
	</g>
	<g>
	</g>
	<g>
	</g>
	<g>
	</g>
	<g>
	</g>
	<g>
	</g>
	<g>
	</g>
	<g>
	</g>
	<g>
	</g>
	<g>
	</g>
	<g>
	</g>
	<g>
	</g>
	<g>
	</g>
	<g>
	</g>
</g>
</svg>
