<?xml version="1.0" encoding="utf-8"?>
<!-- Generator: Adobe Illustrator 17.0.0, SVG Export Plug-In . SVG Version: 6.00 Build 0)  -->
<!DOCTYPE svg PUBLIC "-//W3C//DTD SVG 1.1//EN" "http://www.w3.org/Graphics/SVG/1.1/DTD/svg11.dtd">
<svg version="1.1" id="Capa_1" xmlns="http://www.w3.org/2000/svg" xmlns:xlink="http://www.w3.org/1999/xlink" x="0px" y="0px"
	 width="134.725px" height="131px" viewBox="0 0 134.725 131" enable-background="new 0 0 134.725 131" xml:space="preserve">
<rect x="0" fill="#4CBBFF" stroke="#000000" stroke-width="4" stroke-miterlimit="10" width="134.725" height="131"/>
<g>
	<g>
		<path d="M99.352,103.106c-0.587,1.016-1.446,1.755-2.425,2.086l-4.871,1.631c-0.382,0.133-0.777,0.201-1.175,0.201
			c-0.897,0-1.765-0.336-2.497-0.967c-1.074-0.916-1.748-2.36-1.854-3.925l-0.428-6.165c-0.101-1.265,0.176-2.532,0.763-3.55
			l0.18-0.317H69.669c-1.402,0-2.539-1.417-2.539-3.131c0-1.721,1.137-3.137,2.539-3.137h21.031l4.7-8.228H69.669
			c-1.402,0-2.539-1.417-2.539-3.135s1.137-3.135,2.539-3.135l29.35-0.092l11.006-19.343V37.577c0-2.354-1.486-4.254-3.401-4.254
			h-8.426v8.172c0,3.858-2.573,6.91-5.716,6.91H75.537c-3.15,0-5.634-3.054-5.634-6.91v-8.172h-8.517
			c-1.919,0-3.471,1.902-3.471,4.254v73.085c0,2.354,1.554,4.359,3.471,4.359h45.235c1.921,0,3.403-2.007,3.403-4.359V84.529
			L99.352,103.106z M69.669,56.834h28.675c1.398,0,2.537,1.414,2.537,3.133c0,1.718-1.138,3.135-2.537,3.135H69.669
			c-1.402,0-2.539-1.417-2.539-3.135C67.131,58.249,68.267,56.834,69.669,56.834z"/>
		<path d="M75.585,44.294h16.93c1.281,0,2.324-1.275,2.324-2.85V29.509c0-1.575-1.042-2.85-2.324-2.85h-2.551
			c-0.017-4.012-2.678-7.265-5.959-7.265c-3.282,0-5.94,3.251-5.959,7.265h-2.462c-1.285,0-2.324,1.275-2.324,2.85v11.932
			C73.261,43.017,74.3,44.294,75.585,44.294z M84.007,23.44c1.458,0,2.64,1.438,2.656,3.221h-5.316
			C81.363,24.878,82.547,23.44,84.007,23.44z"/>
		<path d="M131.443,38.606c-0.079-0.531-0.325-0.995-0.684-1.303l-4.239-3.621c-0.286-0.246-0.616-0.364-0.941-0.364
			c-0.517,0-1.032,0.3-1.348,0.862L94.203,86.958l6.936,5.93l30.031-52.775C131.419,39.674,131.518,39.133,131.443,38.606z"/>
		<path d="M89.473,95.576l0.435,6.197c0.021,0.357,0.176,0.676,0.412,0.882c0.168,0.141,0.365,0.223,0.56,0.223
			c0.086,0,0.173-0.015,0.257-0.045l4.897-1.643c0.222-0.075,0.414-0.242,0.546-0.471l1.838-3.231l-6.942-5.932l-1.838,3.231
			C89.51,95.015,89.449,95.295,89.473,95.576z"/>
	</g>
</g>
<g>
	<g>
		<path d="M71.243,103.579c-0.86-2.256-1.451-3.691-1.451-3.691c-0.777-1.896-2.645-3.111-4.429-3.857l-12.058-5.667l-5.792-4.987
			l-9.308,9.45l3.358,22.918C53.13,116.777,63.53,111.538,71.243,103.579z"/>
		<path d="M9.964,96.031c-1.784,0.747-3.725,2.044-4.429,3.857c0,0-0.59,1.435-1.451,3.691c7.713,7.959,18.113,13.198,29.68,14.166
			l3.358-22.918l-9.308-9.45l-5.792,4.987L9.964,96.031z"/>
		<path d="M59.408,53.802c0.133-13.648-6.234-21.816-21.745-21.816S15.784,40.153,15.92,53.802
			c0.209,19.668,9.411,31.396,21.744,31.396C49.995,85.198,59.198,73.47,59.408,53.802z"/>
	</g>
</g>
</svg>
