<?xml version="1.0" encoding="utf-8"?>
<!-- Generator: Adobe Illustrator 17.0.0, SVG Export Plug-In . SVG Version: 6.00 Build 0)  -->
<!DOCTYPE svg PUBLIC "-//W3C//DTD SVG 1.1//EN" "http://www.w3.org/Graphics/SVG/1.1/DTD/svg11.dtd">
<svg version="1.1" id="Capa_1" xmlns="http://www.w3.org/2000/svg" xmlns:xlink="http://www.w3.org/1999/xlink" x="0px" y="0px"
	 width="134.725px" height="131px" viewBox="0 0 134.725 131" enable-background="new 0 0 134.725 131" xml:space="preserve">
<rect x="0" fill="#4CBBFF" stroke="#000000" stroke-width="4" stroke-miterlimit="10" width="134.725" height="131"/>
<g>
	<path d="M75.762,26.104c0,1.77-1.437,3.207-3.207,3.207H34.292c-1.77,0-3.207-1.437-3.207-3.207s1.437-3.207,3.207-3.207h38.264
		C74.326,22.897,75.762,24.334,75.762,26.104z M72.556,35.937H34.292c-1.77,0-3.207,1.437-3.207,3.207s1.437,3.207,3.207,3.207
		h38.264c1.77,0,3.207-1.437,3.207-3.207S74.326,35.937,72.556,35.937z M124.133,54.963l-12.826,57.719
		c-0.652,2.935-3.258,5.023-6.257,5.023H92.224H28.092H15.265c-3.543,0-6.413-2.871-6.413-6.413V34.333
		c0-3.543,2.871-6.413,6.413-6.413h3.207V15.094c0-1.77,1.434-3.207,3.207-3.207H85.81c1.767,0,3.207,1.437,3.207,3.207V27.92h3.207
		c3.543,0,6.413,2.871,6.413,6.413v6.413h6.413c3.543,0,6.413,2.871,6.413,6.413h6.413c1.944,0,3.789,0.882,5,2.401
		C124.095,51.077,124.559,53.065,124.133,54.963z M18.472,34.333h-3.207v76.958h3.207V34.333z M89.017,40.747h3.207v-6.413h-3.207
		V40.747z M40.918,47.16h38.479c0-3.543,2.871-6.413,6.413-6.413V15.094H21.678v96.198h0.005c0-0.467,12.973-59.109,12.973-59.109
		C35.308,49.248,37.914,47.16,40.918,47.16z M97.213,100.315l-10.12-8.263c-0.882-0.718-1.978-0.97-3.022-0.811l-1.177-0.962
		c2.44-3.689,3.532-8.07,3.081-12.531c-0.516-5.11-2.991-9.72-6.97-12.97c-3.432-2.796-7.75-4.338-12.167-4.338
		c-5.805,0-11.238,2.576-14.912,7.072c-6.708,8.214-5.482,20.363,2.735,27.071c3.425,2.801,7.745,4.338,12.159,4.338
		c4.728,0,9.189-1.732,12.67-4.789l1.334,1.083c0.054,1.052,0.513,2.083,1.398,2.801l10.112,8.263
		c0.716,0.587,1.578,0.867,2.432,0.867c1.118,0,2.219-0.482,2.981-1.413C99.109,104.081,98.857,101.659,97.213,100.315z
		 M74.954,69.747c-2.388-1.944-5.259-2.891-8.109-2.891c-3.717,0-7.406,1.608-9.94,4.715c-4.482,5.49-3.666,13.568,1.821,18.047
		c2.383,1.944,5.254,2.891,8.104,2.891c3.715,0,7.406-1.608,9.94-4.715C81.257,82.307,80.434,74.229,74.954,69.747z"/>
</g>
</svg>
