<?xml version="1.0" encoding="utf-8"?>
<!-- Generator: Adobe Illustrator 17.0.0, SVG Export Plug-In . SVG Version: 6.00 Build 0)  -->
<!DOCTYPE svg PUBLIC "-//W3C//DTD SVG 1.1//EN" "http://www.w3.org/Graphics/SVG/1.1/DTD/svg11.dtd">
<svg version="1.1" id="Capa_1" xmlns="http://www.w3.org/2000/svg" xmlns:xlink="http://www.w3.org/1999/xlink" x="0px" y="0px"
	 width="134.725px" height="131px" viewBox="212.387 195.5 134.725 131" enable-background="new 212.387 195.5 134.725 131"
	 xml:space="preserve">
<rect x="212.387" y="195.5" fill="#2D3E50" width="134.725" height="131"/>
<g>
	<g>
		<g>
			<path fill="#FFFFFF" d="M286.521,293.7c-0.694,0.921-1.71,1.591-2.869,1.891l-5.763,1.478c-0.452,0.12-0.919,0.182-1.39,0.182
				c-1.062,0-2.088-0.305-2.954-0.877c-1.27-0.83-2.068-2.139-2.194-3.557l-0.506-5.588c-0.12-1.146,0.209-2.295,0.903-3.218
				l0.213-0.287h-20.556c-1.659,0-3.003-1.284-3.003-2.838c0-1.559,1.345-2.844,3.003-2.844h24.881l5.56-7.458h-30.441
				c-1.659,0-3.003-1.284-3.003-2.842c0-1.558,1.345-2.842,3.003-2.842l34.723-0.083l13.021-17.533v-12.982
				c0-2.134-1.758-3.856-4.024-3.856h-9.968v7.408c0,3.497-3.045,6.263-6.762,6.263h-20.048c-3.726,0-6.665-2.768-6.665-6.263
				v-7.408h-10.076c-2.27,0-4.106,1.724-4.106,3.856v66.245c0,2.134,1.838,3.951,4.106,3.951h53.515
				c2.272,0,4.026-1.819,4.026-3.951v-23.687L286.521,293.7z M251.405,251.759h33.924c1.654,0,3.001,1.282,3.001,2.84
				c0,1.558-1.347,2.842-3.001,2.842h-33.924c-1.659,0-3.003-1.284-3.003-2.842C248.402,253.041,249.746,251.759,251.405,251.759z"
				/>
			<path fill="#FFFFFF" d="M258.403,240.393h20.029c1.516,0,2.749-1.156,2.749-2.584v-10.817c0-1.428-1.233-2.584-2.749-2.584
				h-3.018c-0.021-3.637-3.168-6.585-7.05-6.585c-3.883,0-7.027,2.946-7.05,6.585h-2.912c-1.52,0-2.749,1.156-2.749,2.584v10.816
				C255.654,239.235,256.883,240.393,258.403,240.393z M268.367,221.491c1.725,0,3.123,1.303,3.142,2.919h-6.289
				C265.24,222.794,266.64,221.491,268.367,221.491z"/>
			<path fill="#FFFFFF" d="M324.487,235.237c-0.093-0.481-0.384-0.902-0.81-1.181l-5.015-3.282c-0.339-0.223-0.729-0.33-1.113-0.33
				c-0.611,0-1.221,0.272-1.595,0.782l-35.525,47.838l8.206,5.375l35.529-47.836C324.458,236.205,324.575,235.714,324.487,235.237z"
				/>
			<path fill="#FFFFFF" d="M274.834,286.874l0.514,5.617c0.025,0.324,0.209,0.613,0.487,0.799c0.198,0.128,0.432,0.202,0.663,0.202
				c0.101,0,0.204-0.014,0.304-0.041l5.794-1.49c0.262-0.068,0.49-0.219,0.647-0.427l2.175-2.929l-8.212-5.377l-2.175,2.929
				C274.877,286.366,274.805,286.62,274.834,286.874z"/>
		</g>
	</g>
	<g>
	</g>
	<g>
	</g>
	<g>
	</g>
	<g>
	</g>
	<g>
	</g>
	<g>
	</g>
	<g>
	</g>
	<g>
	</g>
	<g>
	</g>
	<g>
	</g>
	<g>
	</g>
	<g>
	</g>
	<g>
	</g>
	<g>
	</g>
	<g>
	</g>
</g>
</svg>
