<?xml version="1.0" encoding="utf-8"?>
<!-- Generator: Adobe Illustrator 17.0.0, SVG Export Plug-In . SVG Version: 6.00 Build 0)  -->
<!DOCTYPE svg PUBLIC "-//W3C//DTD SVG 1.1//EN" "http://www.w3.org/Graphics/SVG/1.1/DTD/svg11.dtd">
<svg version="1.1" id="Capa_1" xmlns="http://www.w3.org/2000/svg" xmlns:xlink="http://www.w3.org/1999/xlink" x="0px" y="0px"
	 width="134.725px" height="131px" viewBox="0 0 134.725 131" enable-background="new 0 0 134.725 131" xml:space="preserve">
<rect fill="#4CBBFF" stroke="#000000" stroke-width="4" stroke-miterlimit="10" width="134.725" height="131"/>
<g id="Forma_1">
	<g>
		<path d="M82.09,36.701h-6.799l-5.987,6.482l-5.962-6.482h-7.078c0,0-16.372-0.142-17.558,9.202l0.001,0.001v1.221l-6.396-2.892
			l-0.747-0.344c-1.366-0.702-2.381-0.982-3.726-1.021L15.273,21.042l-2.156,0.544l0,0l12.377,21.498
			c-0.642,0.168-1.24,0.413-1.758,0.76c-2.152,1.414-2.102,3.739,0.075,5.178c0.01,0.007,3.551,1.593,3.551,1.593l4.946,2.186
			l9.404,4.144c0.63,0.257,1.548,0.422,2.434,0.422l0.001,0.002c2.983,0,5.419-1.616,5.419-3.597c0-0.012,0-0.025,0-0.031v-6.366
			h3.541l-0.01,15.323h32.56l-0.01-15.229h3.397V66.84h0.005c-0.005,0.055-0.005,0.119-0.005,0.16c0,1.999,2.426,3.604,5.424,3.604
			c2.994,0,5.429-1.612,5.429-3.604c0-0.041-0.01-0.105-0.01-0.16h0.01V45.9C99.902,45.9,100.559,36.927,82.09,36.701z
			 M69.306,58.66l-3.591-12.103l3.591-3.036l4.114,3.036L69.306,58.66z M69.306,35.304c6.864,0,12.428-3.682,12.428-8.223
			c0-4.543-5.564-8.223-12.428-8.223c-6.863,0-12.432,3.681-12.432,8.223C56.874,31.621,62.443,35.304,69.306,35.304z M66.161,63.29
			v1.445h6.286V63.29H66.161z M53.019,65.244l-0.025,43.27c0,2.663,3.277,4.831,7.301,4.831c4.01,0,7.252-2.135,7.312-4.775
			l0.054-0.036V69.11h3.277v39.385c0,2.676,3.293,4.854,7.342,4.854c4.034,0,7.332-2.178,7.332-4.854l-0.03-43.234L53.019,65.244z"
			/>
	</g>
</g>
</svg>
