<?xml version="1.0" encoding="utf-8"?>
<!-- Generator: Adobe Illustrator 17.0.0, SVG Export Plug-In . SVG Version: 6.00 Build 0)  -->
<!DOCTYPE svg PUBLIC "-//W3C//DTD SVG 1.1//EN" "http://www.w3.org/Graphics/SVG/1.1/DTD/svg11.dtd">
<svg version="1.1" id="Capa_1" xmlns="http://www.w3.org/2000/svg" xmlns:xlink="http://www.w3.org/1999/xlink" x="0px" y="0px"
	 width="134.725px" height="131px" viewBox="0 0 134.725 131" enable-background="new 0 0 134.725 131" xml:space="preserve">
<rect fill="#4CBBFF" stroke="#000000" stroke-width="4" stroke-miterlimit="10" width="134.725" height="131"/>
<g id="Forma_1">
	<g>
		<path d="M46.682,51.182c7.379,0,12.886-5.933,13.012-15.881c0.08-6.904-3.731-11.035-13.012-11.035
			c-9.282,0-13.093,4.132-13.012,11.035C33.795,45.25,39.302,51.182,46.682,51.182z M65.909,58.613
			c-0.465-0.959-1.583-1.573-2.65-1.951l-7.216-2.866l-3.467-2.522l-5.556,4.768l2.326,13.42c0.008,0.046-0.005,0.094-0.038,0.132
			l-2.459,2.903c-0.039,0.046-0.102,0.074-0.168,0.074s-0.129-0.028-0.168-0.074l-2.458-2.903c-0.032-0.038-0.046-0.086-0.038-0.132
			l2.326-13.42l-5.556-4.768l-3.467,2.522l-7.216,2.866c-1.068,0.378-2.347,1.241-2.651,1.951c0,0-7.843,16.111-3.589,16.111h45.631
			C73.752,74.724,65.909,58.613,65.909,58.613z M66.216,30.469c9.341,0,17.74,4.64,21.711,11.769l-2.078,0.344
			c-0.527,0.087-0.96,0.41-1.136,0.848s-0.068,0.923,0.283,1.273l6.138,6.122c0.288,0.288,0.704,0.448,1.136,0.448
			c0.094,0,0.189-0.007,0.283-0.023c0.527-0.087,0.96-0.411,1.136-0.848l3.076-7.647c0.176-0.438,0.068-0.923-0.283-1.273
			s-0.893-0.513-1.419-0.425l-2.584,0.428c-4.483-8.99-14.773-14.905-26.263-14.905c-1.245,0-2.254,0.87-2.254,1.945
			C63.962,29.598,64.972,30.469,66.216,30.469z M107.269,88.361c-0.465-0.959-1.583-1.573-2.65-1.951l-7.216-2.866l-3.467-2.522
			l-5.559,4.771l2.33,13.44c0.008,0.046-0.005,0.094-0.038,0.132l-2.459,2.903c-0.039,0.046-0.102,0.074-0.168,0.074
			s-0.129-0.028-0.168-0.074l-2.458-2.903c-0.032-0.038-0.046-0.086-0.038-0.132l2.33-13.44l-5.559-4.771l-3.467,2.522l-7.216,2.866
			c-1.068,0.378-2.298,1.232-2.651,1.951c0,0-7.843,16.111-3.589,16.111h45.631C115.112,104.472,107.269,88.361,107.269,88.361z
			 M57.442,98.779c-9.341,0-17.74-4.64-21.711-11.769l2.078-0.344c0.527-0.087,0.96-0.41,1.136-0.848
			c0.176-0.437,0.068-0.923-0.284-1.273l-6.138-6.122c-0.288-0.287-0.704-0.448-1.136-0.448c-0.094,0-0.189,0.007-0.283,0.023
			c-0.527,0.087-0.96,0.411-1.136,0.848l-3.076,7.647c-0.176,0.438-0.068,0.923,0.283,1.273c0.351,0.35,0.893,0.513,1.419,0.425
			l2.584-0.428c4.484,8.989,14.774,14.904,26.264,14.904c1.245,0,2.254-0.87,2.254-1.945C59.695,99.649,58.686,98.779,57.442,98.779
			z M75.031,65.049c0.125,9.949,5.632,15.881,13.012,15.881c7.38,0,12.886-5.932,13.012-15.881
			c0.08-6.904-3.731-11.035-13.012-11.035C78.761,54.013,74.949,58.145,75.031,65.049z"/>
	</g>
</g>
</svg>
