<?xml version="1.0" encoding="utf-8"?>
<!-- Generator: Adobe Illustrator 17.0.0, SVG Export Plug-In . SVG Version: 6.00 Build 0)  -->
<!DOCTYPE svg PUBLIC "-//W3C//DTD SVG 1.1//EN" "http://www.w3.org/Graphics/SVG/1.1/DTD/svg11.dtd">
<svg version="1.1" id="Capa_1" xmlns="http://www.w3.org/2000/svg" xmlns:xlink="http://www.w3.org/1999/xlink" x="0px" y="0px"
	 width="134.725px" height="131px" viewBox="0 0 134.725 131" enable-background="new 0 0 134.725 131" xml:space="preserve">
<rect x="0" fill="#4CBBFF" stroke="#000000" stroke-width="4" stroke-miterlimit="10" width="134.725" height="131"/>
<g id="Forma_1">
	<g>
		<path d="M66.216,30.469c9.341,0,17.74,4.64,21.711,11.769l-2.078,0.344c-0.527,0.087-0.96,0.41-1.136,0.848
			s-0.068,0.923,0.283,1.273l6.138,6.122c0.288,0.288,0.704,0.448,1.136,0.448c0.094,0,0.189-0.007,0.283-0.023
			c0.527-0.087,0.96-0.411,1.136-0.848l3.076-7.647c0.176-0.438,0.068-0.923-0.283-1.273s-0.893-0.513-1.419-0.425l-2.584,0.428
			c-4.483-8.99-14.773-14.905-26.263-14.905c-1.245,0-2.254,0.87-2.254,1.945C63.962,29.598,64.972,30.469,66.216,30.469z
			 M57.442,98.779c-9.341,0-17.74-4.64-21.711-11.769l2.078-0.344c0.527-0.087,0.96-0.41,1.136-0.848
			c0.176-0.437,0.068-0.923-0.284-1.273l-6.138-6.122c-0.288-0.287-0.704-0.448-1.136-0.448c-0.094,0-0.189,0.007-0.283,0.023
			c-0.527,0.087-0.96,0.411-1.136,0.848l-3.076,7.647c-0.176,0.438-0.068,0.923,0.283,1.273c0.351,0.35,0.893,0.513,1.419,0.425
			l2.584-0.428c4.484,8.989,14.774,14.904,26.264,14.904c1.245,0,2.254-0.87,2.254-1.945C59.695,99.649,58.686,98.779,57.442,98.779
			z M74.977,64.968c0-6.884-6.062-14.384-6.062-14.384c-2.349-3.089-5.011-6.59-10.712-8.655c-0.106-0.038-0.649-0.214-0.83-0.269
			l-6.19-1.872l-2.974-1.647l-4.779,3.121l1.967,9.311l-2.244,0.407l-2.244-0.407l1.967-9.311l-4.779-3.121l-2.975,1.647
			l-6.191,1.872c-0.18,0.055-0.724,0.231-0.829,0.269c-5.7,2.064-8.362,5.566-10.712,8.655c0,0-5.069,6.803-6.061,14.384
			c-0.011,0.081-0.013,0.162-0.013,0.244c0,2.245,2.958,4.071,6.594,4.071c0.265,0,0.53-0.014,0.792-0.04
			c1.836-0.186,3.417-0.571,4.84-1.057l18.99,3.44c0.048,0.008,0.096,0.015,0.145,0.021l0.022,0.003
			c0.039,0.005,0.078,0.011,0.106,0.014c0.122,0.012,0.236,0.018,0.35,0.018c0.113,0,0.227-0.006,0.337-0.018
			c0.041-0.003,0.082-0.008,0.136-0.017c0.05-0.006,0.1-0.013,0.148-0.021l18.99-3.44c1.423,0.486,3.004,0.872,4.839,1.057
			c0.262,0.027,0.527,0.04,0.792,0.04c3.636,0,6.593-1.826,6.593-4.071C74.989,65.13,74.977,65.05,74.977,64.968z M40.82,68.135
			l-12.385-2.243c1.43-1.185,1.534-2.895,0.096-4.165c-0.71-0.626-1.684-1.046-2.745-1.246v-9.467l15.034,2.723L40.82,68.135
			L40.82,68.135z M60.522,60.48c-1.062,0.199-2.036,0.619-2.746,1.246c-1.439,1.27-1.334,2.981,0.096,4.165l-12.384,2.243V53.737
			l15.034-2.723V60.48L60.522,60.48z M43.153,38.141c6.268,0,14.678-5.144,14.821-13.768c0.091-5.985-4.249-9.567-14.821-9.567
			s-14.913,3.582-14.82,9.567C28.476,32.998,35.817,38.141,43.153,38.141z M40.175,26.777c7.665,0.536,14.347-6.504,14.238-0.2
			c-0.064,3.773-5.394,9.47-11.259,9.47c-6.155,0-10.401-4.735-11.258-9.469C30.968,21.445,45.314,22.614,40.175,26.777z
			 M124.977,106.968c0-6.884-6.062-14.384-6.062-14.384c-2.349-3.089-5.011-6.59-10.712-8.655c-0.106-0.038-0.649-0.214-0.83-0.269
			l-6.19-1.872l-2.974-1.647l-4.779,3.121l1.967,9.311l-2.244,0.407l-2.244-0.407l1.967-9.311l-4.779-3.121l-2.975,1.647
			l-6.191,1.872c-0.18,0.055-0.724,0.231-0.829,0.269c-5.7,2.064-8.362,5.566-10.712,8.655c0,0-5.069,6.803-6.061,14.384
			c-0.011,0.081-0.013,0.162-0.013,0.244c0,2.245,2.958,4.071,6.594,4.071c0.265,0,0.53-0.014,0.792-0.04
			c1.836-0.186,3.417-0.571,4.84-1.057l18.99,3.44c0.048,0.008,0.096,0.015,0.145,0.021l0.022,0.003
			c0.039,0.005,0.078,0.011,0.106,0.014c0.122,0.012,0.236,0.018,0.35,0.018c0.113,0,0.227-0.006,0.337-0.018
			c0.041-0.003,0.082-0.008,0.136-0.017c0.05-0.006,0.1-0.013,0.148-0.021l18.99-3.44c1.423,0.486,3.004,0.872,4.839,1.057
			c0.262,0.027,0.527,0.04,0.792,0.04c3.636,0,6.593-1.826,6.593-4.071C124.989,107.13,124.977,107.05,124.977,106.968z
			 M90.82,110.135l-12.385-2.243c1.43-1.185,1.534-2.895,0.096-4.165c-0.71-0.626-1.684-1.046-2.745-1.246v-9.467l15.034,2.723
			L90.82,110.135L90.82,110.135z M110.522,102.48c-1.062,0.199-2.036,0.619-2.746,1.246c-1.439,1.27-1.335,2.981,0.096,4.165
			l-12.384,2.243V95.737l15.034-2.723V102.48L110.522,102.48z M93.154,80.141c6.268,0,14.678-5.144,14.821-13.768
			c0.091-5.985-4.249-9.567-14.821-9.567s-14.913,3.582-14.82,9.567C78.476,74.998,85.817,80.141,93.154,80.141z M90.175,68.777
			c7.665,0.536,14.347-6.504,14.238-0.2c-0.064,3.773-5.394,9.47-11.259,9.47c-6.155,0-10.401-4.735-11.258-9.469
			C80.968,63.445,95.314,64.614,90.175,68.777z"/>
	</g>
</g>
</svg>
