<?xml version="1.0" encoding="utf-8"?>
<!-- Generator: Adobe Illustrator 17.0.0, SVG Export Plug-In . SVG Version: 6.00 Build 0)  -->
<!DOCTYPE svg PUBLIC "-//W3C//DTD SVG 1.1//EN" "http://www.w3.org/Graphics/SVG/1.1/DTD/svg11.dtd">
<svg version="1.1" id="Capa_1" xmlns="http://www.w3.org/2000/svg" xmlns:xlink="http://www.w3.org/1999/xlink" x="0px" y="0px"
	 width="134.725px" height="131px" viewBox="0 0 134.725 131" enable-background="new 0 0 134.725 131" xml:space="preserve">
<rect x="0" fill="#4CBBFF" stroke="#000000" stroke-width="4" stroke-miterlimit="10" width="134.725" height="131"/>
<g>
	<path d="M90.514,64.589l10.656,15.448c0.998,1.447,3.119,1.447,4.118,0l10.656-15.448c1.148-1.647-0.05-3.918-2.046-3.918h-3.119
		c-0.923-9.558-3.319-17.993-7.138-25.155c-4.193-7.886-10.032-14.225-17.394-18.842c-8.21-5.141-16.446-6.938-21.237-7.562
		c-2.221-0.299-4.193,1.447-4.218,3.693l-0.025,7.562c0,1.847,1.348,3.419,3.169,3.718c3.444,0.524,9.234,1.922,14.849,5.59
		c9.583,6.239,15.248,16.646,16.92,30.995h-3.119C90.564,60.671,89.391,62.917,90.514,64.589z"/>
	<path d="M21.343,64.954h3.119c0.923,9.558,3.319,17.993,7.137,25.155c4.193,7.886,10.032,14.225,17.394,18.842
		c8.21,5.141,16.446,6.938,21.237,7.562c2.221,0.299,4.193-1.447,4.218-3.693l0.025-7.562c0-1.847-1.348-3.419-3.169-3.718
		c-3.469-0.524-9.259-1.922-14.849-5.59c-9.583-6.239-15.248-16.646-16.92-30.995h3.119c2.021,0,3.194-2.246,2.046-3.918
		L34.045,45.614c-0.998-1.447-3.119-1.447-4.118,0L19.271,61.061C18.148,62.708,19.321,64.954,21.343,64.954z"/>
</g>
<path d="M92.469,117.312c3.432,0,6.302-1.061,8.531-3.156c2.245-2.111,3.384-4.854,3.384-8.154c0-3.488-1.172-6.187-3.485-8.038
	c1.955-1.822,2.945-4.199,2.945-7.097c0-3.013-1.049-5.516-3.116-7.437c-2.047-1.919-4.709-2.893-7.91-2.893
	c-3.166,0-5.69,0.834-7.508,2.48c-1.798,1.626-2.988,4.165-3.548,7.549c-0.049,0.305,0.037,0.617,0.239,0.856
	c0.198,0.238,0.493,0.372,0.805,0.372h5.035c0.5,0,0.927-0.347,1.032-0.832c0.309-1.407,0.774-2.437,1.321-2.951
	c0.567-0.5,1.424-0.755,2.555-0.755c1.234,0,2.196,0.351,2.949,1.083c0.741,0.695,1.1,1.587,1.1,2.728
	c0,1.479-0.485,2.511-1.49,3.151c-0.316,0.206-1.222,0.549-3.748,0.549c-0.584,0-1.056,0.473-1.056,1.056v4.321
	c0,0.582,0.473,1.057,1.056,1.057c2.204,0,3.302,0.369,3.826,0.676c1.275,0.757,1.892,2.039,1.892,3.913
	c0,1.436-0.429,2.584-1.302,3.492c-0.873,0.885-1.956,1.317-3.311,1.317c-1.37,0-2.435-0.341-3.252-1.038
	c-0.819-0.702-1.325-1.71-1.546-3.089c-0.082-0.512-0.524-0.887-1.042-0.887h-4.887c-0.299,0-0.58,0.126-0.78,0.347
	c-0.202,0.221-0.301,0.516-0.272,0.813c0.235,2.361,0.811,4.257,1.713,5.646C84.751,115.653,88.071,117.312,92.469,117.312z"/>
<path d="M27.797,41.636c0.182,0.345,0.532,0.572,0.926,0.572h4.328h9.165h9.031c0.404,0,0.741-0.232,0.918-0.563
	c0.081-0.148,0.138-0.311,0.138-0.493v-4.757c0-0.583-0.474-1.056-1.056-1.056H41.035l3.742-4.427c1.49-1.76,2.676-3.228,3.63-4.487
	c0.978-1.289,1.731-2.428,2.243-3.373c0.611-1.103,1.026-2.231,1.281-3.372c0.19-0.828,0.305-1.663,0.305-2.502
	c0-3.159-1.168-5.846-3.463-7.981C46.513,7.075,43.684,6,40.366,6C33.539,6,29.475,9.988,28.61,17.534
	c-0.034,0.298,0.062,0.598,0.262,0.825c0.201,0.224,0.486,0.353,0.788,0.353h5.039c0.534,0,0.984-0.397,1.049-0.928
	c0.561-4.561,2.992-5.089,4.771-5.089c1.352,0,2.448,0.423,3.352,1.289c0.894,0.858,1.327,1.896,1.327,3.17
	c0,0.73-0.262,1.577-0.757,2.524c-0.107,0.2-0.21,0.402-0.339,0.613c-0.384,0.656-0.957,1.491-1.702,2.48
	c-0.766,1.018-1.719,2.225-2.848,3.611L27.908,40.477c-0.26,0.315-0.315,0.752-0.139,1.122
	C27.772,41.617,27.789,41.623,27.797,41.636z"/>
</svg>
