<?xml version="1.0" encoding="utf-8"?>
<!-- Generator: Adobe Illustrator 17.0.0, SVG Export Plug-In . SVG Version: 6.00 Build 0)  -->
<!DOCTYPE svg PUBLIC "-//W3C//DTD SVG 1.1//EN" "http://www.w3.org/Graphics/SVG/1.1/DTD/svg11.dtd">
<svg version="1.1" id="Capa_1" xmlns="http://www.w3.org/2000/svg" xmlns:xlink="http://www.w3.org/1999/xlink" x="0px" y="0px"
	 width="134.725px" height="131px" viewBox="0 0 134.725 131" enable-background="new 0 0 134.725 131" xml:space="preserve">
<rect x="0" fill="#4CBBFF" width="134.725" height="131"/>
<g>
	<g>
		<path fill="#0C000C" d="M112.863,109H23.407V20h89.455C112.863,20,112.863,109,112.863,109z M28.628,105.242h79.009V23.755H28.628
			V105.242z"/>
		<rect x="41.039" y="65.639" fill="#0C000C" width="56.808" height="3.843"/>
		<rect x="41.039" y="74.575" fill="#0C000C" width="56.808" height="3.84"/>
		<rect x="41.039" y="83.494" fill="#0C000C" width="56.808" height="3.849"/>
		<rect x="41.039" y="91.725" fill="#0C000C" width="56.808" height="3.846"/>
		<path fill="#0C000C" d="M76.039,27.694c-4.152,0-10.519,1.449-11.495,2.064c-0.976,0.621-0.672,2.044,1.15,1.432
			c1.827-0.612,6.61-1.846,10.345-1.846c12.293,0,22.29,7.199,22.29,16.045s-9.997,14.397-22.29,14.397
			c-12.289,0-22.29-5.548-22.29-14.397c0-2.802,2.05-7.178,2.779-7.735c0.729-0.56-1.114-1.988-1.847-0.994
			c-0.733,0.997-3.228,5.557-3.228,8.729c0,9.764,11.034,16.051,24.587,16.051c13.561,0,24.587-6.286,24.587-16.051
			C100.63,35.634,89.601,27.694,76.039,27.694z"/>
		<g>
			<path fill="#0C000C" d="M61.393,37.109h10.77c1.28,0,2.333,0.117,3.155,0.347c0.814,0.233,1.45,0.531,1.924,0.881
				c0.47,0.359,0.79,0.746,0.948,1.163c0.166,0.414,0.251,0.802,0.251,1.16c0,0.711-0.219,1.28-0.66,1.703
				c-0.437,0.426-1.025,0.781-1.77,1.07c0.45,0.105,0.879,0.251,1.28,0.434c0.417,0.184,0.774,0.423,1.094,0.703
				c0.308,0.286,0.567,0.624,0.761,1.023c0.19,0.394,0.284,0.854,0.284,1.365c0,0.717-0.194,1.341-0.591,1.881
				c-0.397,0.531-0.919,0.983-1.555,1.338c-0.644,0.353-1.385,0.627-2.203,0.811c-0.83,0.184-1.669,0.28-2.536,0.28H61.389V37.109
				H61.393z M67.456,42.62h3.196c0.64,0,1.146-0.073,1.511-0.236c0.373-0.157,0.551-0.467,0.551-0.933
				c0-0.356-0.186-0.606-0.563-0.749c-0.377-0.146-0.879-0.222-1.499-0.222h-3.196V42.62z M67.456,47.897h3.552
				c0.308,0,0.608-0.02,0.895-0.061c0.284-0.038,0.535-0.105,0.761-0.207c0.219-0.099,0.393-0.233,0.523-0.405
				c0.122-0.175,0.19-0.399,0.19-0.676c0-0.857-0.705-1.283-2.114-1.283h-3.799v2.633L67.456,47.897L67.456,47.897z"/>
			<path fill="#0C000C" d="M81.556,44.739h4.848v-3.484h4.213v3.484h4.844v3.035h-4.844v3.493h-4.213v-3.493h-4.848V44.739z"/>
		</g>
	</g>
</g>
</svg>
