<?xml version="1.0" encoding="utf-8"?>
<!-- Generator: Adobe Illustrator 17.0.0, SVG Export Plug-In . SVG Version: 6.00 Build 0)  -->
<!DOCTYPE svg PUBLIC "-//W3C//DTD SVG 1.1//EN" "http://www.w3.org/Graphics/SVG/1.1/DTD/svg11.dtd">
<svg version="1.1" id="Capa_1" xmlns="http://www.w3.org/2000/svg" xmlns:xlink="http://www.w3.org/1999/xlink" x="0px" y="0px"
	 width="134.725px" height="131px" viewBox="0 0 134.725 131" enable-background="new 0 0 134.725 131" xml:space="preserve">
<rect x="0" fill="#4CBBFF" stroke="#000000" stroke-width="4" stroke-miterlimit="10" width="134.725" height="131"/>
<g>
	<g>
		<path d="M76.395,103.135c-0.768,1.123-1.893,1.939-3.176,2.305l-6.379,1.801c-0.501,0.147-1.017,0.222-1.539,0.222
			c-1.175,0-2.311-0.371-3.269-1.069c-1.406-1.012-2.289-2.608-2.428-4.336l-0.56-6.811c-0.133-1.397,0.231-2.797,0.999-3.922
			l0.235-0.35H37.527c-1.836,0-3.324-1.565-3.324-3.459c0-1.901,1.488-3.466,3.324-3.466h27.54l6.155-9.09H37.527
			c-1.836,0-3.324-1.565-3.324-3.463s1.488-3.463,3.324-3.463l38.434-0.102l14.412-21.37V30.74c0-2.601-1.946-4.7-4.454-4.7H74.886
			v9.029c0,4.263-3.37,7.634-7.485,7.634h-22.19c-4.124,0-7.378-3.374-7.378-7.634V26.04H26.681c-2.513,0-4.545,2.102-4.545,4.7
			v80.743c0,2.601,2.035,4.816,4.545,4.816h59.234c2.515,0,4.456-2.218,4.456-4.816V82.612L76.395,103.135z M37.527,52.015h37.549
			c1.831,0,3.322,1.563,3.322,3.461c0,1.898-1.491,3.463-3.322,3.463H37.527c-1.836,0-3.324-1.565-3.324-3.463
			C34.202,53.578,35.691,52.015,37.527,52.015z"/>
		<path d="M45.272,38.161h22.17c1.678,0,3.043-1.409,3.043-3.149V21.827c0-1.74-1.365-3.149-3.043-3.149h-3.34
			c-0.023-4.433-3.507-8.026-7.803-8.026c-4.298,0-7.778,3.591-7.803,8.026h-3.224c-1.683,0-3.043,1.409-3.043,3.149V35.01
			C42.229,36.75,43.59,38.161,45.272,38.161z M56.301,15.122c1.909,0,3.457,1.589,3.477,3.558h-6.962
			C52.84,16.711,54.39,15.122,56.301,15.122z"/>
		<path d="M118.418,31.877c-0.103-0.586-0.425-1.099-0.896-1.44l-5.551-4c-0.375-0.272-0.807-0.402-1.232-0.402
			c-0.677,0-1.351,0.331-1.765,0.953L69.653,85.295l9.083,6.551l39.326-58.305C118.386,33.057,118.517,32.459,118.418,31.877z"/>
		<path d="M63.459,94.815l0.569,6.847c0.027,0.395,0.231,0.747,0.54,0.974c0.219,0.156,0.478,0.246,0.734,0.246
			c0.112,0,0.226-0.017,0.336-0.05l6.413-1.816c0.29-0.083,0.542-0.267,0.716-0.52l2.407-3.57l-9.09-6.553l-2.407,3.57
			C63.507,94.196,63.427,94.506,63.459,94.815z"/>
	</g>
</g>
</svg>
