<?xml version="1.0" encoding="utf-8"?>
<!-- Generator: Adobe Illustrator 17.0.0, SVG Export Plug-In . SVG Version: 6.00 Build 0)  -->
<!DOCTYPE svg PUBLIC "-//W3C//DTD SVG 1.1//EN" "http://www.w3.org/Graphics/SVG/1.1/DTD/svg11.dtd">
<svg version="1.1" id="Capa_1" xmlns="http://www.w3.org/2000/svg" xmlns:xlink="http://www.w3.org/1999/xlink" x="0px" y="0px"
	 width="134.725px" height="131px" viewBox="0 0 134.725 131" enable-background="new 0 0 134.725 131" xml:space="preserve">
<rect fill="#2D3E50" width="134.725" height="131"/>
<g>
	<g>
		<g>
			<path fill="#FFFFFF" d="M40.23,37.629c3.644,0,6.6-5.44,6.6-10.132c0-4.693-2.956-8.496-6.6-8.496
				c-3.648,0-6.605,3.803-6.605,8.496C33.625,32.188,36.582,37.629,40.23,37.629z"/>
			<path fill="#FFFFFF" d="M53.152,43.529c-0.05-0.232-0.086-0.473-0.173-0.689c-0.078-0.194-0.189-0.352-0.291-0.516
				s-0.194-0.344-0.32-0.486c-0.15-0.165-0.32-0.271-0.493-0.389c-0.11-0.069-0.192-0.185-0.313-0.239
				c-0.236-0.11-5.491-2.537-10.32-2.853l-0.664,1.705h-0.016l1.755,17.622l-2.089,4.702l-2.086-4.702l1.755-17.622h-0.019
				l-0.654-1.686c-4.402,0.287-9.146,2.304-10.135,2.742c-0.045,0.02-0.083,0.04-0.126,0.058c-0.024,0.013-0.058,0.026-0.065,0.033
				c-0.053,0.025-0.087,0.077-0.137,0.106c-0.252,0.142-0.491,0.307-0.693,0.539c-0.093,0.112-0.157,0.244-0.238,0.369
				c-0.128,0.202-0.263,0.387-0.353,0.623c-0.082,0.21-0.117,0.437-0.162,0.666c-0.037,0.161-0.105,0.303-0.119,0.483l-2.089,24.194
				c-0.16,1.84,0.874,3.5,2.304,3.707c0.1,0.02,0.197,0.023,0.292,0.023c1.312,0,2.442-1.27,2.592-2.992l1.903-22.032
				c0.223-0.084,0.466-0.183,0.724-0.274v22.936l-2.078,33.255c-0.138,2.216,1.147,4.163,2.871,4.338
				c0.083,0.01,0.17,0.012,0.254,0.012c1.617,0,2.987-1.596,3.117-3.707l1.879-30.056c0.386,0.224,0.813,0.353,1.262,0.353
				c0.451,0,0.877-0.128,1.265-0.353l1.878,30.056c0.132,2.11,1.504,3.707,3.117,3.707c0.085,0,0.17-0.003,0.255-0.012
				c1.727-0.175,3.01-2.121,2.87-4.338l-2.078-33.255V46.62c0.26,0.091,0.505,0.19,0.728,0.274l1.902,22.032
				c0.146,1.722,1.277,2.992,2.592,2.992c0.095,0,0.191-0.01,0.291-0.023c1.434-0.207,2.464-1.867,2.304-3.707l-2.088-24.194
				C53.252,43.826,53.184,43.688,53.152,43.529z"/>
			<path fill="#FFFFFF" d="M92.983,51.662H61.865c-1.239,0-2.233,1.286-2.233,2.881c0,1.59,0.994,2.871,2.233,2.871h31.118
				c1.24,0,2.235-1.281,2.235-2.871C95.215,52.949,94.218,51.662,92.983,51.662z"/>
			<path fill="#FFFFFF" d="M92.983,64.384H61.865c-1.239,0-2.233,1.285-2.233,2.877c0,1.596,0.994,2.869,2.233,2.869h31.118
				c1.24,0,2.235-1.273,2.235-2.869C95.217,65.668,94.218,64.384,92.983,64.384z"/>
			<path fill="#FFFFFF" d="M92.983,77.095H61.865c-1.239,0-2.233,1.293-2.233,2.879c0,1.593,0.994,2.873,2.233,2.873h31.118
				c1.24,0,2.235-1.28,2.235-2.873C95.215,78.388,94.218,77.095,92.983,77.095z"/>
			<polygon fill="#FFFFFF" points="112.347,44.387 110.161,42.513 104.48,53.506 100.106,49.275 98.533,51.973 105.126,58.356 			
				"/>
			<path fill="#FFFFFF" d="M104.806,63.58c1.578,0,2.854,1.646,2.854,3.672c0,2.032-1.276,3.678-2.854,3.678
				c-1.576,0-2.854-1.646-2.854-3.678C101.951,65.226,103.23,63.58,104.806,63.58z"/>
			<path fill="#FFFFFF" d="M104.806,76.293c1.578,0,2.854,1.646,2.854,3.674c0,2.029-1.276,3.674-2.854,3.674
				c-1.576,0-2.854-1.646-2.854-3.674C101.951,77.94,103.23,76.293,104.806,76.293z"/>
		</g>
	</g>
</g>
</svg>
