<?xml version="1.0" encoding="utf-8"?>
<!-- Generator: Adobe Illustrator 17.0.0, SVG Export Plug-In . SVG Version: 6.00 Build 0)  -->
<!DOCTYPE svg PUBLIC "-//W3C//DTD SVG 1.1//EN" "http://www.w3.org/Graphics/SVG/1.1/DTD/svg11.dtd">
<svg version="1.1" id="Capa_1" xmlns="http://www.w3.org/2000/svg" xmlns:xlink="http://www.w3.org/1999/xlink" x="0px" y="0px"
	 width="134.725px" height="131px" viewBox="0 0 134.725 131" enable-background="new 0 0 134.725 131" xml:space="preserve">
<rect x="0" fill="#4CBBFF" stroke="#000000" stroke-width="4" stroke-miterlimit="10" width="134.725" height="131"/>
<g>
	<g>
		<path d="M109.257,45.258c-0.403-3.029-0.46-8.247,2.354-9.999c0.05-0.032,0.088-0.079,0.132-0.118
			c2.3-0.736,3.892-1.768,2.643-3.158L80.451,21.758l-54.947,7.639c0,0-6.292,0.899-5.73,10.675c0.305,5.321,1.974,7.934,3.433,9.22
			l-4.509,1.359c-1.251,1.389,0.34,2.422,2.641,3.157c0.044,0.041,0.081,0.087,0.132,0.119c2.812,1.753,2.758,6.971,2.353,10.001
			c-10.102,2.868-6.476,3.803-6.476,3.803l2.216,0.536c-1.559,1.409-3.107,4.079-2.817,9.145c0.562,9.774,5.731,10.448,5.731,10.448
			l35.957,11.687l54.273-13.146c0,0,3.627-0.936-6.477-3.805c-0.406-3.025-0.463-8.242,2.356-10c0.052-0.031,0.09-0.079,0.131-0.118
			c2.301-0.736,3.891-1.767,2.641-3.157l-2.359-0.712c1.573-0.949,3.936-3.428,4.307-9.869c0.255-4.43-0.9-7.025-2.238-8.552
			l4.663-1.128C115.733,49.063,119.36,48.127,109.257,45.258z M63.861,45.133l9.127-1.876l30.843-6.338l4.595-0.945
			c-1.468,2.687-1.407,6.365-1.164,8.729c0.053,0.535,0.115,1.023,0.174,1.394l-5.03,1.251l-38.929,9.684L63.861,45.133z
			 M24.656,54.645l4.595,0.945l29.621,6.089l2.588,0.53l0,0l0,0l7.76,1.595l0.383,11.899l-40.011-9.954l-3.944-0.98
			c0.058-0.372,0.119-0.859,0.175-1.396C26.063,61.011,26.126,57.332,24.656,54.645z M22.871,39.602
			c-0.056-2.6,0.408-4.481,1.344-5.437c0.596-0.61,1.299-0.737,1.782-0.737c0.255,0,0.438,0.035,0.451,0.035l23.675,7.719
			l11.812,3.851l-0.388,11.982l-33.137-9.29l-1.749-0.49c-0.064-0.018-0.151-0.031-0.219-0.034
			C26.307,47.192,23.031,46.89,22.871,39.602z M58.521,94.357l-34.885-9.78c-0.065-0.019-0.151-0.031-0.218-0.035
			c-0.139-0.009-3.417-0.31-3.575-7.597c-0.057-2.603,0.409-4.482,1.344-5.439c0.597-0.61,1.301-0.737,1.783-0.737
			c0.255,0,0.438,0.034,0.452,0.034c0,0,0.001,0,0,0l35.485,11.571L58.521,94.357z M104.234,82.042
			c0.055,0.537,0.116,1.024,0.176,1.396L60.45,94.374l0.384-11.899l9.398-1.932l1.388,0.336l5.202-1.691l23.98-4.928l4.597-0.946
			C103.93,76.001,103.991,79.68,104.234,82.042z M106.655,65.871c-0.08,0.002-0.16,0.012-0.235,0.036l-3.315,0.928l-31.569,8.852
			L71.15,63.705l10.357-3.378l25.079-8.179c0.003-0.001,1.319-0.294,2.285,0.688c0.935,0.956,1.399,2.836,1.344,5.437
			C110.052,65.559,106.775,65.862,106.655,65.871z"/>
	</g>
</g>
<path d="M110.679,100.655c0.342-0.386,0.348-0.965,0.01-1.354c-5.244-6.08-10.696-9.162-16.207-9.162
	c-9.395,0-15.388,8.888-15.638,9.268c-0.246,0.37-0.225,0.86,0.055,1.21c4.425,5.534,9.471,8.339,14.996,8.339
	c0.151,0,0.299-0.022,0.451-0.024c0.154,0.01,0.307,0.024,0.463,0.024c0.849,0,1.667-0.124,2.449-0.34
	C104.875,107.091,110.417,100.953,110.679,100.655z M96.998,106.551c-0.851,0.18-1.725,0.292-2.623,0.321
	c-3.758-0.223-6.749-3.344-6.749-7.156c0-3.959,3.221-7.18,7.18-7.18s7.179,3.222,7.179,7.18
	C101.982,102.911,99.885,105.622,96.998,106.551z M81,99.932c0.906-1.179,3.169-3.837,6.395-5.707
	c-1.143,1.537-1.827,3.434-1.827,5.492c0,2.094,0.709,4.021,1.888,5.572C85.194,104.13,83.033,102.351,81,99.932z M102.847,104.244
	c0.757-1.34,1.195-2.882,1.195-4.525c0-1.809-0.53-3.493-1.431-4.915c1.974,1.261,3.944,2.97,5.899,5.136
	C107.542,100.888,105.521,102.704,102.847,104.244z"/>
<path d="M96.407,94.576c-0.468-0.285-1.012-0.459-1.602-0.459c-0.59,0-1.135,0.174-1.602,0.459
	c-1.816,0.765-3.123,2.769-3.123,5.138c0,3.024,2.12,5.488,4.726,5.488c2.605,0,4.726-2.464,4.726-5.488
	C99.531,97.349,98.224,95.344,96.407,94.576z M95.834,97.204c0,0.568-0.461,1.029-1.029,1.029c-0.568,0-1.029-0.461-1.029-1.029
	c0-0.351,0.185-0.642,0.451-0.831c0.187-0.052,0.379-0.086,0.578-0.086c0.198,0,0.391,0.034,0.577,0.086
	C95.65,96.561,95.834,96.853,95.834,97.204z M94.805,103.147c-1.471,0-2.668-1.539-2.668-3.43c0-0.285,0.035-0.561,0.087-0.829
	c0.551,0.841,1.5,1.4,2.58,1.4s2.028-0.559,2.58-1.4c0.051,0.269,0.087,0.54,0.087,0.829
	C97.473,101.607,96.276,103.147,94.805,103.147z"/>
</svg>
