<?xml version="1.0" encoding="utf-8"?>
<!-- Generator: Adobe Illustrator 17.0.0, SVG Export Plug-In . SVG Version: 6.00 Build 0)  -->
<!DOCTYPE svg PUBLIC "-//W3C//DTD SVG 1.1//EN" "http://www.w3.org/Graphics/SVG/1.1/DTD/svg11.dtd">
<svg version="1.1" id="Capa_1" xmlns="http://www.w3.org/2000/svg" xmlns:xlink="http://www.w3.org/1999/xlink" x="0px" y="0px"
	 width="134.725px" height="131px" viewBox="0 0 134.725 131" enable-background="new 0 0 134.725 131" xml:space="preserve">
<rect fill="#2D3E50" width="134.725" height="131"/>
<g>
	<g>
		<g>
			<rect x="37.652" y="46.747" fill="#FFFFFF" width="8.056" height="8.974"/>
			<rect x="37.652" y="61.795" fill="#FFFFFF" width="8.056" height="8.978"/>
			<rect x="49.371" y="46.747" fill="#FFFFFF" width="31.864" height="8.974"/>
			<rect x="49.371" y="61.795" fill="#FFFFFF" width="31.864" height="8.978"/>
			<path fill="#FFFFFF" d="M31.696,97.032V40.755h61.262V70.3c0.731-0.101,1.47-0.169,2.222-0.169c1.189,0,2.348,0.169,3.47,0.416
				V24.368c0-2.411-1.705-4.368-3.797-4.368H29.797C27.701,20,26,21.957,26,24.368v74.852c0,2.406,1.701,4.368,3.797,4.368h47.544
				c-2.188-2.527-3.822-4.943-4.83-6.557C72.511,97.032,31.696,97.032,31.696,97.032z"/>
			<path fill="#FFFFFF" d="M91.064,74.02c-10.535,0-19.082,15.439-19.082,15.439s8.548,15.439,19.082,15.439
				s19.074-15.439,19.074-15.439S101.598,74.02,91.064,74.02z M91.064,96.848c-3.554,0-6.427-3.315-6.427-7.389
				c0-4.088,2.877-7.398,6.427-7.398c3.545,0,6.422,3.315,6.422,7.398C97.49,93.538,94.609,96.848,91.064,96.848z"/>
		</g>
	</g>
	<g>
	</g>
	<g>
	</g>
	<g>
	</g>
	<g>
	</g>
	<g>
	</g>
	<g>
	</g>
	<g>
	</g>
	<g>
	</g>
	<g>
	</g>
	<g>
	</g>
	<g>
	</g>
	<g>
	</g>
	<g>
	</g>
	<g>
	</g>
	<g>
	</g>
</g>
</svg>
