<?xml version="1.0" encoding="utf-8"?>
<!-- Generator: Adobe Illustrator 17.0.0, SVG Export Plug-In . SVG Version: 6.00 Build 0)  -->
<!DOCTYPE svg PUBLIC "-//W3C//DTD SVG 1.1//EN" "http://www.w3.org/Graphics/SVG/1.1/DTD/svg11.dtd">
<svg version="1.1" id="Capa_1" xmlns="http://www.w3.org/2000/svg" xmlns:xlink="http://www.w3.org/1999/xlink" x="0px" y="0px"
	 width="134.725px" height="131px" viewBox="0 0 134.725 131" enable-background="new 0 0 134.725 131" xml:space="preserve">
<rect fill="#2D3E50" width="134.725" height="131"/>
<g>
	<g>
		<g>
			<path fill="#FFFFFF" d="M52.272,53.238c-1.104,0-1.995,0.894-1.993,2.017l0.043,12.709c0.002,1.119,0.897,2.031,1.997,2.031
				c0.002,0,0.004,0,0.006,0c0.623,0,1.177-0.309,1.543-0.763l0.789,12.402c0.07,1.107,0.973,1.957,2.064,1.957h4.116
				c1.091,0,1.995-0.86,2.064-1.965l0.789-12.422c0.364,0.482,0.918,0.788,1.541,0.788c0,0,0.002,0,0.006,0
				c1.1,0,1.995-0.944,1.999-2.053l0.041-12.701c0.002-1.115-0.889-2.14-1.993-2.14c-0.002,0-0.004,0-0.004,0
				c-0.869,0-12.14,0.137-13.004,0.137C52.278,53.238,52.274,53.238,52.272,53.238z"/>
			<ellipse fill="#FFFFFF" cx="58.783" cy="46.191" rx="5.535" ry="5.629"/>
			<path fill="#FFFFFF" d="M72.889,53.238c-1.104,0-1.997,0.894-1.995,2.017l0.043,12.709c0.002,1.119,0.899,2.031,1.999,2.031
				c0,0,0.004,0,0.008,0c0.621,0,1.179-0.309,1.541-0.763l0.787,12.402c0.07,1.107,0.975,1.957,2.066,1.957h4.118
				c1.091,0,1.995-0.86,2.064-1.965l0.787-12.422c0.364,0.482,0.918,0.788,1.539,0.788c0.002,0,0.004,0,0.006,0
				c1.102,0,1.997-0.944,1.999-2.053l0.041-12.701c0.006-1.115-0.887-2.14-1.993-2.14c-0.002,0-0.006,0-0.006,0
				c-0.869,0-12.14,0.137-13.002,0.137C72.894,53.238,72.892,53.238,72.889,53.238z"/>
			<ellipse fill="#FFFFFF" cx="79.397" cy="46.191" rx="5.535" ry="5.629"/>
			<path fill="#FFFFFF" d="M110.822,43.406c-0.938-0.338-1.97-0.121-2.688,0.538c-7.217-15.124-22.33-24.943-39.173-24.943
				c-19.749,0-37.068,13.561-42.118,32.979c-0.429,1.655-0.074,3.476,0.952,4.834c1.03,1.358,2.645,2.194,4.327,2.194h0.039
				c2.63,0,4.956-1.828,5.655-4.41C41.67,40.38,54.477,30.437,68.961,30.437c12.359,0,23.336,7.032,28.768,17.977
				c-0.993,0.04-1.897,0.637-2.32,1.577c-0.476,1.055-0.243,2.302,0.587,3.1l11.835,11.45c0.77,0.747,1.897,0.954,2.874,0.538
				c0.979-0.416,1.621-1.384,1.637-2.463l0.247-16.611C112.608,44.843,111.897,43.8,110.822,43.406z"/>
			<path fill="#FFFFFF" d="M105.698,68.907c-2.643,0-4.975,1.808-5.674,4.394c-3.869,14.268-16.72,24.235-31.253,24.235
				c-12.4,0-23.417-7.066-28.87-18.047c0.997-0.04,1.903-0.641,2.326-1.583c0.48-1.059,0.245-2.314-0.587-3.114L29.762,63.3
				c-0.771-0.747-1.903-0.956-2.886-0.54c-0.981,0.418-1.625,1.39-1.641,2.475l-0.249,16.667c-0.016,1.167,0.697,2.214,1.776,2.608
				c0.938,0.342,1.974,0.125,2.698-0.54c7.243,15.178,22.406,25.029,39.308,25.029c19.818,0,37.198-13.611,42.265-33.095
				c0.431-1.661,0.072-3.462-0.958-4.824C109.048,69.721,107.425,68.907,105.698,68.907z"/>
		</g>
	</g>
</g>
</svg>
