<?xml version="1.0" encoding="utf-8"?>
<!-- Generator: Adobe Illustrator 17.0.0, SVG Export Plug-In . SVG Version: 6.00 Build 0)  -->
<!DOCTYPE svg PUBLIC "-//W3C//DTD SVG 1.1//EN" "http://www.w3.org/Graphics/SVG/1.1/DTD/svg11.dtd">
<svg version="1.1" id="Capa_1" xmlns="http://www.w3.org/2000/svg" xmlns:xlink="http://www.w3.org/1999/xlink" x="0px" y="0px"
	 width="134.725px" height="131px" viewBox="0 0 134.725 131" enable-background="new 0 0 134.725 131" xml:space="preserve">
<rect fill="#2D3E50" width="134.725" height="131"/>
<g>
	<g>
		<g>
			<path fill="#FFFFFF" d="M93.434,98.553c-2.972-1.267-6.399-1.905-10.185-1.905c-9.293,0-18.133,3.767-20.794,5.008V83.663
				l1.24,1.441V58.077c4.692-4.173,10.38-6.413,16.957-6.684l1.276-2.273c-7.725,0.009-14.397,2.508-19.821,7.431
				c-5.435-4.934-12.115-7.434-19.871-7.434c-7.242,0-12.671,2.232-12.896,2.326l-0.667,0.276v4.526
				c-2.196,0.429-3.561,1.206-3.561,2.473c0,6.599,0,46.634,0,46.634h32.469c1.126,1.062,2.766,1.741,4.603,1.741
				s3.48-0.676,4.601-1.741h31.657c0,0,0-43.867,0-46.587L93.433,69.73L93.434,98.553L93.434,98.553z M61.755,101.678
				c-2.697-1.17-11.981-4.911-21.277-4.911c-3.672,0-6.927,0.603-9.702,1.776V53.258c1.618-0.57,6.03-1.917,11.459-1.917
				c7.139,0,13.274,2.282,18.286,6.737v27.03l1.234-1.441C61.755,83.668,61.755,101.678,61.755,101.678z"/>
			<path fill="#FFFFFF" d="M34.937,59.211l0.436,1.744c10.964-3.076,20.832,2.614,20.93,2.673l0.828-1.576
				C56.709,61.807,46.582,55.947,34.937,59.211z"/>
			<path fill="#FFFFFF" d="M34.937,64.316l0.436,1.741c10.964-3.079,20.832,2.62,20.93,2.673l0.828-1.573
				C56.709,66.906,46.582,61.049,34.937,64.316z"/>
			<path fill="#FFFFFF" d="M34.937,69.109l0.436,1.744c10.964-3.073,20.832,2.62,20.93,2.676l0.828-1.573
				C56.709,71.699,46.582,65.845,34.937,69.109z"/>
			<path fill="#FFFFFF" d="M34.937,74.367l0.436,1.741c10.964-3.076,20.832,2.62,20.93,2.673l0.828-1.573
				C56.709,76.96,46.582,71.1,34.937,74.367z"/>
			<path fill="#FFFFFF" d="M34.937,79.239l0.436,1.741c10.964-3.073,20.832,2.617,20.93,2.67l0.828-1.573
				C56.709,81.83,46.582,75.975,34.937,79.239z"/>
			<path fill="#FFFFFF" d="M34.937,84.241l0.436,1.741c10.964-3.079,20.832,2.617,20.93,2.676l0.828-1.579
				C56.709,86.832,46.582,80.977,34.937,84.241z"/>
			<path fill="#FFFFFF" d="M34.937,89.252l0.436,1.744c10.964-3.079,20.832,2.614,20.93,2.67l0.828-1.567
				C56.709,91.845,46.582,85.988,34.937,89.252z"/>
			<path fill="#FFFFFF" d="M98.357,19.628l-5.14,11.177l0.025,0.009L77.349,65.436l-1.387,18.211l13.605-11.618l16.051-34.86
				l0.022,0.015l5.129-11.177L98.357,19.628z M88.644,71.07l-7.764,6.625l-3.077-1.573l0.759-10.207l0.717-1.579l1.426,5.343
				l3.15-2.144l0.617,4.073l4.698-1.679L88.644,71.07z M105.438,31.405l-7.795-4.002l1.899-4.134l7.792,4.005L105.438,31.405z"/>
		</g>
	</g>
</g>
</svg>
