<?xml version="1.0" encoding="utf-8"?>
<!-- Generator: Adobe Illustrator 17.0.0, SVG Export Plug-In . SVG Version: 6.00 Build 0)  -->
<!DOCTYPE svg PUBLIC "-//W3C//DTD SVG 1.1//EN" "http://www.w3.org/Graphics/SVG/1.1/DTD/svg11.dtd">
<svg version="1.1" id="Capa_1" xmlns="http://www.w3.org/2000/svg" xmlns:xlink="http://www.w3.org/1999/xlink" x="0px" y="0px"
	 width="134.725px" height="131px" viewBox="0 0 134.725 131" enable-background="new 0 0 134.725 131" xml:space="preserve">
<rect fill="#2D3E50" width="134.725" height="131"/>
<g>
	<g>
		<g>
			<ellipse fill="#FFFFFF" cx="66.346" cy="31.23" rx="11.389" ry="12.23"/>
			<polygon fill="#FFFFFF" points="82.455,48.533 72.596,46.188 70.57,44.013 67.586,47.492 69.364,63.448 86.342,63.448 			"/>
			<polygon fill="#FFFFFF" points="60.072,46.188 50.221,48.533 46.353,63.439 63.32,63.439 65.098,47.488 62.102,44.013 			"/>
			<ellipse fill="#FFFFFF" cx="41.41" cy="78.604" rx="10.754" ry="11.548"/>
			<polygon fill="#FFFFFF" points="47.308,92.719 45.409,90.66 42.587,93.938 44.255,108.997 60.271,108.997 56.614,94.918 			"/>
			<polygon fill="#FFFFFF" points="35.501,92.719 26.21,94.918 22.545,109.001 38.557,109.001 40.23,93.938 37.415,90.668 			"/>
			<path fill="#FFFFFF" d="M102.035,78.608c0-6.377-4.815-11.54-10.765-11.54c-5.924,0-10.739,5.162-10.739,11.54
				c0,6.377,4.819,11.536,10.739,11.536C97.212,90.143,102.035,84.985,102.035,78.608z"/>
			<polygon fill="#FFFFFF" points="106.474,94.918 97.175,92.719 95.269,90.66 92.45,93.93 94.126,108.993 110.131,108.993 			"/>
			<polygon fill="#FFFFFF" points="85.368,92.719 76.069,94.918 72.408,109.001 88.424,109.001 90.101,93.938 87.267,90.668 			"/>
		</g>
	</g>
</g>
</svg>
