<?xml version="1.0" encoding="utf-8"?>
<!-- Generator: Adobe Illustrator 17.0.0, SVG Export Plug-In . SVG Version: 6.00 Build 0)  -->
<!DOCTYPE svg PUBLIC "-//W3C//DTD SVG 1.1//EN" "http://www.w3.org/Graphics/SVG/1.1/DTD/svg11.dtd">
<svg version="1.1" id="Capa_1" xmlns="http://www.w3.org/2000/svg" xmlns:xlink="http://www.w3.org/1999/xlink" x="0px" y="0px"
	 width="134.725px" height="131px" viewBox="0 0 134.725 131" enable-background="new 0 0 134.725 131" xml:space="preserve">
<rect fill="#2D3E50" width="134.725" height="131"/>
<g>
	<g>
		<g>
			<g>
				<path fill="#FFFFFF" d="M45.11,53.476c0.222,0.203,0.52,0.306,0.817,0.282l3.162-0.255c0.211-0.017,0.411-0.095,0.579-0.226
					c0.275-0.215,0.436-0.554,0.43-0.907c-0.067-3.832,1.606-7.366,4.59-9.695c2.48-1.936,5.621-2.78,8.684-2.35l-0.506,0.757
					c-0.219,0.329-0.251,0.756-0.082,1.114c0.169,0.358,0.515,0.6,0.904,0.63l8.13,0.623c0.268,0.021,0.533-0.06,0.747-0.227
					c0.093-0.073,0.173-0.16,0.239-0.258c0.219-0.329,0.251-0.756,0.082-1.114l-3.535-7.499c-0.169-0.358-0.516-0.599-0.905-0.63
					c-0.384-0.029-0.768,0.159-0.986,0.485l-0.84,1.257c-5.274-1.598-10.797-0.558-15.186,2.869
					c-4.351,3.396-6.851,8.759-6.687,14.345C44.756,52.982,44.889,53.273,45.11,53.476z"/>
				<path fill="#FFFFFF" d="M99.782,80.058c-0.223-0.203-0.52-0.306-0.817-0.282l-3.163,0.254c-0.211,0.017-0.411,0.095-0.578,0.226
					c-0.275,0.215-0.436,0.554-0.43,0.908c0.067,3.831-1.606,7.365-4.59,9.694c-2.48,1.936-5.62,2.781-8.684,2.35l0.506-0.757
					c0.219-0.329,0.251-0.756,0.082-1.114c-0.169-0.358-0.516-0.6-0.904-0.63l-8.13-0.623c-0.385-0.03-0.773,0.164-0.986,0.485
					c-0.22,0.328-0.251,0.755-0.082,1.113l3.535,7.5c0.169,0.358,0.515,0.599,0.904,0.63c0.384,0.029,0.769-0.159,0.987-0.485
					l0.84-1.257c5.274,1.598,10.797,0.558,15.186-2.869c4.351-3.396,6.851-8.759,6.687-14.345
					C100.137,80.552,100.004,80.261,99.782,80.058z"/>
				<path fill="#FFFFFF" d="M47.151,57.538c-7.431,0-11.543,3.93-11.468,11.504c0.109,10.373,4.427,16.665,11.468,16.556
					c0,0,11.463,0.475,11.463-16.556C58.614,61.469,54.742,57.538,47.151,57.538z"/>
				<path fill="#FFFFFF" d="M67.426,93.471L55.973,88.81l-2.682-2.307c-0.708-0.611-1.755-0.566-2.412,0.101l-3.729,3.785
					l-3.74-3.787c-0.657-0.665-1.702-0.708-2.41-0.099l-2.683,2.307l-11.454,4.662c-3.688,1.499-3.685,14.832-4.002,16.056h48.572
					C71.118,108.306,71.117,94.969,67.426,93.471z"/>
				<path fill="#FFFFFF" d="M89.564,23.097c-7.431,0-11.543,3.93-11.468,11.504c0.109,10.373,4.427,16.665,11.468,16.556
					c0,0,11.463,0.474,11.463-16.556C101.027,27.027,97.154,23.097,89.564,23.097z"/>
				<path fill="#FFFFFF" d="M109.839,59.03l-11.453-4.662l-2.682-2.307c-0.709-0.611-1.755-0.566-2.412,0.101l-3.729,3.785
					l-3.74-3.786c-0.657-0.666-1.702-0.709-2.41-0.1l-2.683,2.307L69.278,59.03c-3.688,1.499-3.685,14.832-4.002,16.056h48.571
					C113.531,73.865,113.529,60.527,109.839,59.03z"/>
			</g>
		</g>
	</g>
	<g>
	</g>
	<g>
	</g>
	<g>
	</g>
	<g>
	</g>
	<g>
	</g>
	<g>
	</g>
	<g>
	</g>
	<g>
	</g>
	<g>
	</g>
	<g>
	</g>
	<g>
	</g>
	<g>
	</g>
	<g>
	</g>
	<g>
	</g>
	<g>
	</g>
</g>
</svg>
