<?xml version="1.0" encoding="utf-8"?>
<!-- Generator: Adobe Illustrator 17.0.0, SVG Export Plug-In . SVG Version: 6.00 Build 0)  -->
<!DOCTYPE svg PUBLIC "-//W3C//DTD SVG 1.1//EN" "http://www.w3.org/Graphics/SVG/1.1/DTD/svg11.dtd">
<svg version="1.1" id="Capa_1" xmlns="http://www.w3.org/2000/svg" xmlns:xlink="http://www.w3.org/1999/xlink" x="0px" y="0px"
	 width="134.725px" height="131px" viewBox="0 0 134.725 131" enable-background="new 0 0 134.725 131" xml:space="preserve">
<rect fill="#2D3E50" width="134.725" height="131"/>
<g>
	<g>
		<g>
			<path fill="#FFFFFF" d="M109.405,87.442L89.727,57.973l-0.729-1.384c-0.607-0.923-1.609-1.845-3.006-2.769
				c-1.397-0.923-3.006-1.384-4.828-1.384H54.562c-1.822,0-3.462,0.494-4.919,1.483s-2.399,1.813-2.824,2.472
				s-0.698,1.187-0.82,1.582L26.32,87.442c-0.972,1.45-1.458,3.033-1.458,4.747c0,2.241,0.759,4.186,2.278,5.834
				c1.518,1.648,3.31,2.472,5.375,2.472c0.972,0,1.944-0.198,2.915-0.593l11.843-3.758V109h41.178V96.144l11.843,3.758
				c0.972,0.396,1.944,0.593,2.915,0.593c2.065,0,3.857-0.824,5.375-2.472c1.518-1.648,2.278-3.593,2.278-5.834
				C110.863,90.475,110.377,88.893,109.405,87.442z M88.452,79.729l-1.458-0.593c-2.065-0.527-3.917-0.527-5.557,0
				c-1.64,0.527-2.824,1.516-3.553,2.967c-0.729,1.45-1.124,2.967-1.184,4.549s0.456,3.131,1.549,4.648
				c1.093,1.516,2.672,2.604,4.737,3.263h0.182L67.863,100.1l-15.305-5.538h0.364c1.944-0.659,3.462-1.747,4.555-3.263
				c1.093-1.516,1.609-3.066,1.549-4.648c-0.061-1.582-0.456-3.099-1.184-4.549c-0.729-1.45-1.913-2.439-3.553-2.967
				c-1.64-0.527-3.492-0.527-5.557,0l-1.458,0.593V62.522l20.589,7.318l20.589-7.318V79.729z"/>
			<path fill="#FFFFFF" d="M68.136,49.073c3.705,0,6.863-1.417,9.475-4.252c2.612-2.835,3.917-6.263,3.917-10.284
				c0-4.022-1.306-7.45-3.917-10.284C74.999,21.417,71.841,20,68.136,20c-3.705,0-6.863,1.417-9.475,4.252
				s-3.917,6.263-3.917,10.284s1.306,7.45,3.917,10.284C61.273,47.656,64.431,49.073,68.136,49.073z"/>
		</g>
	</g>
	<g>
	</g>
	<g>
	</g>
	<g>
	</g>
	<g>
	</g>
	<g>
	</g>
	<g>
	</g>
	<g>
	</g>
	<g>
	</g>
	<g>
	</g>
	<g>
	</g>
	<g>
	</g>
	<g>
	</g>
	<g>
	</g>
	<g>
	</g>
	<g>
	</g>
</g>
</svg>
