<?xml version="1.0" encoding="utf-8"?>
<!-- Generator: Adobe Illustrator 17.0.0, SVG Export Plug-In . SVG Version: 6.00 Build 0)  -->
<!DOCTYPE svg PUBLIC "-//W3C//DTD SVG 1.1//EN" "http://www.w3.org/Graphics/SVG/1.1/DTD/svg11.dtd">
<svg version="1.1" id="Capa_1" xmlns="http://www.w3.org/2000/svg" xmlns:xlink="http://www.w3.org/1999/xlink" x="0px" y="0px"
	 width="134.725px" height="131px" viewBox="0 0 134.725 131" enable-background="new 0 0 134.725 131" xml:space="preserve">
<rect x="0" fill="#4CBBFF" stroke="#000000" stroke-width="4" stroke-miterlimit="10" width="134.725" height="131"/>
<g>
	<g>
		<g>
			<path d="M72.712,78.47c0-5.457-3.214-11.402-3.214-11.402c-1.246-2.449-2.657-5.224-5.679-6.861
				c-0.056-0.03-0.345-0.17-0.44-0.214l-3.282-1.484l-1.577-1.305l-2.534,2.474l1.043,7.381l-1.19,0.322l-1.19-0.322l1.043-7.381
				l-2.534-2.474l-1.577,1.305l-3.282,1.484c-0.095,0.044-0.384,0.183-0.44,0.214c-3.023,1.636-4.434,4.412-5.68,6.861
				c0,0-2.688,5.393-3.214,11.402c-0.006,0.064-0.007,0.129-0.007,0.193c0,1.779,1.568,3.227,3.496,3.227
				c0.141,0,0.281-0.011,0.42-0.032c0.973-0.147,1.812-0.453,2.566-0.838l10.069,2.727c0.025,0.007,0.051,0.012,0.076,0.017
				l0.012,0.002c0.02,0.004,0.041,0.009,0.056,0.011c0.065,0.009,0.125,0.014,0.185,0.014c0.06,0,0.12-0.005,0.179-0.014
				c0.022-0.002,0.043-0.007,0.072-0.013c0.026-0.005,0.053-0.01,0.078-0.017l10.069-2.727c0.754,0.385,1.593,0.691,2.566,0.838
				c0.139,0.021,0.279,0.032,0.42,0.032c1.928,0,3.496-1.448,3.496-3.227C72.719,78.599,72.712,78.534,72.712,78.47z M54.601,80.981
				l-6.567-1.778c0.758-0.939,0.813-2.295,0.051-3.302c-0.376-0.497-0.893-0.829-1.456-0.988v-7.504l7.972,2.159L54.601,80.981
				L54.601,80.981z M65.048,74.912c-0.563,0.158-1.08,0.491-1.456,0.988c-0.763,1.007-0.707,2.363,0.051,3.302l-6.567,1.778V69.567
				l7.972-2.159L65.048,74.912L65.048,74.912z"/>
			<path d="M55.838,57.204c3.324,0,7.783-4.077,7.858-10.914c0.048-4.744-2.253-7.584-7.858-7.584c-5.606,0-7.907,2.839-7.858,7.584
				C48.056,53.127,51.948,57.204,55.838,57.204z M54.259,48.195c4.064,0.425,7.607-5.156,7.55-0.159
				c-0.034,2.991-2.86,7.508-5.969,7.508c-3.264,0-5.515-3.754-5.969-7.506C49.377,43.968,56.984,44.895,54.259,48.195z"/>
		</g>
	</g>
</g>
<path d="M93.662,79.546l27.638,27.137c0.426,0.483,0.642,1.026,0.642,1.629c0,0.604-0.216,1.145-0.642,1.628l-10.043,9.86
	c-0.495,0.421-1.047,0.633-1.659,0.633c-0.615,0-1.169-0.212-1.658-0.633L80.301,92.662c-7.308,4.704-15.324,7.055-24.045,7.055
	c-12.287,0-22.789-4.281-31.506-12.844c-8.724-8.563-13.084-18.874-13.084-30.936c0-12.061,4.36-22.373,13.084-30.935
	c8.718-8.563,19.22-12.846,31.506-12.846c12.284,0,22.786,4.283,31.51,12.846c8.718,8.563,13.081,18.874,13.081,30.935
	C100.847,64.501,98.451,72.37,93.662,79.546z M34.697,34.861c-5.956,5.849-8.937,12.875-8.937,21.076
	c0,8.202,2.981,15.227,8.937,21.077c5.959,5.849,13.144,8.773,21.559,8.773c8.412,0,15.585-2.908,21.511-8.729
	c5.926-5.818,8.889-12.859,8.889-21.121c0-8.261-2.963-15.301-8.889-21.121c-5.926-5.818-13.099-8.729-21.511-8.729
	C47.841,26.087,40.656,29.012,34.697,34.861z"/>
</svg>
