<?xml version="1.0" encoding="utf-8"?>
<!-- Generator: Adobe Illustrator 17.0.0, SVG Export Plug-In . SVG Version: 6.00 Build 0)  -->
<!DOCTYPE svg PUBLIC "-//W3C//DTD SVG 1.1//EN" "http://www.w3.org/Graphics/SVG/1.1/DTD/svg11.dtd">
<svg version="1.1" id="Capa_1" xmlns="http://www.w3.org/2000/svg" xmlns:xlink="http://www.w3.org/1999/xlink" x="0px" y="0px"
	 width="134.725px" height="131px" viewBox="0 0 134.725 131" enable-background="new 0 0 134.725 131" xml:space="preserve">
<rect fill="#2D3E50" width="134.725" height="131"/>
<g>
	<g>
		<g>
			<path d="M50.916,65.664c6.819,0,12.343-9.785,12.343-21.875c0-7.549,1.489-14.442-1.794-18.37
				c-1.968-2.367-10.628-3.485-13.189-3.485c-3.044,0-6.999,4.391-9.15,7.616c-2.681,4.01-0.566,7.544-0.566,14.239
				C38.559,55.879,44.08,65.664,50.916,65.664z M42.308,41.649c2.265-0.733,3.806,0.593,3.806,0.593l3.795-3.268
				c0,0-1.927,4.941-0.191,3.268c3.852-2.304,8.167-1.34,10.369-0.578c0.076,0.853,0.144,1.726,0.144,2.637
				c0,9-4.034,16.278-9.038,16.278c-4.993,0-9.033-7.279-9.033-16.278C42.156,43.389,42.229,42.512,42.308,41.649z"/>
			<path d="M72.125,69.212c-0.686-11.048,2.295-17.715,3.444-19.85c1.062,11.439,6.637,20.216,13.388,20.216
				c6.397,0,11.739-7.886,13.195-18.442c1.092,3.451,2.951,10.503,2.499,18.076c11.346-0.169,5.755-23.128-2.2-25.649
				c-0.057-1.171-0.112-2.347-0.259-3.475c-0.471-7.259-4.141-22.01-14.649-21.556c-9.071,0.371-11.052,12.451-11.518,19.816
				c-0.324,1.812-0.525,3.707-0.599,5.664C63.618,47.655,64.919,68.855,72.125,69.212z M82.576,38.661c0,0,1.165,0.704,1.165,7.409
				c2.001,1.244,5.483-10.417,5.483-10.417v9.183c2.227,1.065,9.199-0.357,9.199-0.357l0.261,0.4
				c0.005,0.198,0.033,0.386,0.033,0.588c0,9.539-4.377,17.29-9.757,17.29c-5.306,0-9.623-7.553-9.74-16.914
				C81.15,44.599,82.576,38.661,82.576,38.661z"/>
			<polygon points="91.979,72.745 86.254,72.745 81.46,72.745 71.004,95.044 59.597,70.234 43.272,70.234 26.178,103.455 
				29.764,110.006 42.003,91.51 42.27,105.952 61.122,105.441 61.173,92.176 68.878,106.193 70.47,110.006 70.701,109.514 
				70.96,109.977 71.641,107.62 80.945,88.753 81.547,97.165 79.671,104.549 98.697,103.985 96.171,97.165 96.642,86.811 
				104.834,106.246 110.273,103.86 97.276,72.745 			"/>
		</g>
	</g>
	<g>
	</g>
	<g>
	</g>
	<g>
	</g>
	<g>
	</g>
	<g>
	</g>
	<g>
	</g>
	<g>
	</g>
	<g>
	</g>
	<g>
	</g>
	<g>
	</g>
	<g>
	</g>
	<g>
	</g>
	<g>
	</g>
	<g>
	</g>
	<g>
	</g>
</g>
</svg>
