<?xml version="1.0" encoding="utf-8"?>
<!-- Generator: Adobe Illustrator 17.0.0, SVG Export Plug-In . SVG Version: 6.00 Build 0)  -->
<!DOCTYPE svg PUBLIC "-//W3C//DTD SVG 1.1//EN" "http://www.w3.org/Graphics/SVG/1.1/DTD/svg11.dtd">
<svg version="1.1" id="Capa_1" xmlns="http://www.w3.org/2000/svg" xmlns:xlink="http://www.w3.org/1999/xlink" x="0px" y="0px"
	 width="134.725px" height="131px" viewBox="0 0 134.725 131" enable-background="new 0 0 134.725 131" xml:space="preserve">
<rect fill="#2D3E50" width="134.725" height="131"/>
<g>
	<g>
		<g>
			<path d="M76.345,39.966c-0.251,0-0.262,0-0.287,0.376c-0.053,0.769-0.1,1.38-0.137,1.873h-0.987c-0.764,0-0.867,0.47-0.887,0.91
				c-0.02,0.44-0.022,0.455-0.022,0.534c0,0.088,0.036,0.144,0.131,0.144h1.645c-0.05,0.572-0.059,0.751-0.059,1.013
				c0,0.795,0.251,1.236,1.244,1.236c0.209,0,0.265-0.053,0.276-0.261l0.148-1.987h0.981c0.742,0,0.898-0.352,0.934-0.872
				l0.042-0.534c0-0.114-0.098-0.182-0.195-0.182h-1.617c0.05-0.584,0.059-0.819,0.059-1.065
				C77.611,40.409,77.36,39.966,76.345,39.966z"/>
			<path d="M82.683,45.361c-0.039,0.065-0.084,0.208-0.084,0.302v0.778c0,0.69,0.307,0.948,1.132,0.948h4.049
				c0.744,0,0.903-0.352,0.94-0.872l0.05-0.766c0-0.129-0.098-0.182-0.195-0.182h-3.134c0.764-0.64,3.603-2.601,3.603-5.107
				c0-1.092-0.577-2.445-2.799-2.445c-1.536,0-3.176,0.687-3.176,2.48c0,0.91,0.441,1.391,1.366,1.391
				c0.349,0,0.371-0.065,0.399-0.238c0.075-0.699,0.251-1.714,1.051-1.714c0.633,0,0.887,0.352,0.887,0.781
				C86.771,42.332,83.155,44.451,82.683,45.361z"/>
			<path d="M92.688,45.323l-0.039,0.702c0,0.091,0.039,0.144,0.137,0.144h3.979c0.742,0,0.895-0.352,0.937-0.872l0.053-0.702
				c0-0.129-0.072-0.182-0.198-0.182H93.58C92.816,44.413,92.713,44.879,92.688,45.323z"/>
			<path d="M98.142,41.918l0.056-0.704c0-0.129-0.075-0.182-0.195-0.182h-3.982c-0.761,0-0.864,0.47-0.881,0.91l-0.045,0.702
				c0,0.091,0.042,0.144,0.139,0.144h3.971C97.947,42.787,98.106,42.437,98.142,41.918z"/>
			<rect x="90.07" y="63.594" width="14.089" height="5.512"/>
			<polygon points="32.175,20.192 32.175,28.859 35.772,27.691 35.772,23.978 107.714,23.978 107.714,72.256 50.464,72.256 
				50.277,76.039 111.314,76.039 111.314,20.192 			"/>
			<ellipse cx="37.897" cy="40.923" rx="10.654" ry="11.215"/>
			<path d="M46.942,104.258V84.293v-1.884v-2.554h0.678l0.99-20.267l18.375-10.021l-0.998-2.031l1.812-1.318
				c0.033,0.795,0.337,1.168,1.269,1.168h0.68c0.148,0,0.181-0.053,0.192-0.194c0.042-0.364,0.513-7.215,0.513-7.943
				c0-0.637-0.371-1.095-1.274-1.095h-0.742c-0.028,0-0.418,0.276-0.689,0.443c-1.051,0.675-1.126,0.743-1.126,0.91
				c0,0.455,0.335,1.221,0.965,1.221c0.198,0,0.418-0.076,0.597-0.285c-0.137,1.779-0.279,3.508-0.351,4.623l-0.268-0.408
				l-2.206,1.603l-0.789-1.597l-16.8,9.161h-5.995l-4.06,4.958l-3.929-4.958l-8.63,1.453l-0.558,20.394h3.661l0.195,4.186h0.558
				v2.554v1.884v19.968h-0.736L24,105.239v4.15h3.644l4.247-0.734l0.039,0.734h4.707v-4.626v-0.499V84.296h2.68v19.968v0.499v4.626
				h4.707l0.039-0.734l4.249,0.734h3.642v-4.15l-4.28-0.98H46.942z"/>
		</g>
	</g>
	<g>
	</g>
	<g>
	</g>
	<g>
	</g>
	<g>
	</g>
	<g>
	</g>
	<g>
	</g>
	<g>
	</g>
	<g>
	</g>
	<g>
	</g>
	<g>
	</g>
	<g>
	</g>
	<g>
	</g>
	<g>
	</g>
	<g>
	</g>
	<g>
	</g>
</g>
</svg>
