<?xml version="1.0" encoding="utf-8"?>
<!-- Generator: Adobe Illustrator 17.0.0, SVG Export Plug-In . SVG Version: 6.00 Build 0)  -->
<!DOCTYPE svg PUBLIC "-//W3C//DTD SVG 1.1//EN" "http://www.w3.org/Graphics/SVG/1.1/DTD/svg11.dtd">
<svg version="1.1" id="Capa_1" xmlns="http://www.w3.org/2000/svg" xmlns:xlink="http://www.w3.org/1999/xlink" x="0px" y="0px"
	 width="134.725px" height="131px" viewBox="0 0 134.725 131" enable-background="new 0 0 134.725 131" xml:space="preserve">
<rect fill="#4CBBFF" stroke="#000000" stroke-width="4" stroke-miterlimit="10" width="134.725" height="131"/>
<g id="Forma_1">
	<g>
		<path d="M96.52,78.597c-0.705-1.378-2.401-2.259-4.019-2.802l-10.943-4.117l-5.258-3.623l-8.43,6.853l3.533,19.306
			c0.012,0.066-0.008,0.135-0.058,0.19l-3.729,4.17c-0.059,0.066-0.155,0.106-0.255,0.106c-0.1,0-0.196-0.04-0.255-0.106
			l-3.727-4.17c-0.049-0.055-0.07-0.124-0.058-0.19l3.533-19.306l-8.43-6.853l-5.258,3.623l-10.943,4.117
			c-1.62,0.543-3.485,1.77-4.02,2.802c0,0-11.894,23.142-5.443,23.142h69.197C108.413,101.74,96.52,78.597,96.52,78.597z
			 M47.632,45.111c0.19,14.291,8.541,22.812,19.732,22.812s19.541-8.521,19.732-22.812c0.121-9.917-5.658-15.851-19.732-15.851
			C53.289,29.259,47.508,35.194,47.632,45.111z"/>
	</g>
</g>
</svg>
