<?xml version="1.0" encoding="utf-8"?>
<!-- Generator: Adobe Illustrator 17.0.0, SVG Export Plug-In . SVG Version: 6.00 Build 0)  -->
<!DOCTYPE svg PUBLIC "-//W3C//DTD SVG 1.1//EN" "http://www.w3.org/Graphics/SVG/1.1/DTD/svg11.dtd">
<svg version="1.1" id="Capa_1" xmlns="http://www.w3.org/2000/svg" xmlns:xlink="http://www.w3.org/1999/xlink" x="0px" y="0px"
	 width="134.725px" height="131px" viewBox="0 0 134.725 131" enable-background="new 0 0 134.725 131" xml:space="preserve">
<rect fill="#4CBBFF" stroke="#000000" stroke-width="4" stroke-miterlimit="10" width="134.725" height="131"/>
<g>
	<g id="Layer_5_41_">
		<g>
			<path d="M55.332,42.132c-13.187,0-23.877,8.836-23.877,19.736v6.273c0,5.362,2.152,10.25,6.351,13.807
				c0.584,0.345,0.938,0.111,1.196-0.027c1.918-1.014,4.138-2.066,6.64-2.59l0,0c1.521-0.317,2.097-0.493,3.2-0.713
				c0.558-0.111,0.61-0.391-0.146-0.568c-6.807-1.59-10.215-7.018-10.215-13.452c0,0,0-3.227,0-4.303
				c0-0.436,0.256-0.576,0.666-0.576c1.312,0,4.203,0,5.349,0c0.465,0,0.568-0.248,0.676-0.596c0.256-0.817,0.782-4.61,1.434-4.602
				c0.653,0.008,1.128,3.831,1.348,4.638c0.089,0.328,0.215,0.559,0.635,0.559c0.842,0,1.923,0,3.159,0c6.488,0,17.232,0,19.845,0
				c0.378,0,0.586,0.201,0.586,0.601c0,1.07,0,4.278,0,4.278c0,6.537-3.487,12.033-10.535,13.524
				c-0.603,0.128-0.503,0.353-0.036,0.407c1.055,0.122,1.577,0.323,3.125,0.602c2.544,0.501,5.276,1.631,7.322,2.63
				c0.225,0.11,0.597,0.265,1.147-0.129c4.031-3.534,6.005-8.25,6.005-13.491v-6.273C79.209,50.967,68.519,42.132,55.332,42.132z"/>
			<path d="M67.028,82.386c-0.834-0.282-1.71-0.525-2.623-0.732c-0.124-0.028-0.322-0.102-0.565-0.102
				c-0.133,0-0.32,0.044-0.54,0.192c-0.441,0.221-0.885,0.419-1.333,0.597c-1.958,0.707-3.998,1.021-6.389,1.021
				c-3.154,0-5.752-0.552-8.266-1.812c-0.352-0.236-0.596-0.128-0.717-0.105c-7.649,1.477-13.009,5.325-13.009,12.634v3.408l0,0.002
				c0.002,0.833,0.016,5.05,0.023,6.68c0.002,0.464-0.023,0.749,0.787,0.754c4.235,0.029,35.241,0.053,41.82,0.008
				c0.81-0.005,0.785-0.29,0.787-0.754c0.006-1.63,0.02-5.661,0.023-6.494c0-0.001,0-0.001,0-0.001v-3.409
				C77.026,87.968,73.035,84.24,67.028,82.386z M56.224,96.937c-0.107,0.178-0.292,0.467-0.778,0.467
				c-0.452,0-0.689-0.318-0.808-0.503c-2.229-3.462-12.855-10.863-12.855-10.863c-0.123-0.149,0.027-0.267,0.134-0.298
				c0.777-0.219,3.747-2.196,4.583-2.358c0.121-0.023,0.407-0.075,0.717,0.105c2.514,1.26,5.112,1.812,8.266,1.812
				c2.391,0,4.431-0.314,6.389-1.021c0.449-0.178,0.892-0.376,1.333-0.597c0.22-0.147,0.414-0.186,0.548-0.186
				c0.242,0,0.434,0.067,0.558,0.096c0.72,0.163,3.581,2.137,4.253,2.347c0.17,0.053,0.434,0.219,0.264,0.423
				C68.827,86.363,58.29,93.486,56.224,96.937z M71.525,95.919h-8.129v-1.454h8.129V95.919z"/>
			<path d="M88.121,44.529c-0.291,0-0.529-0.197-0.529-0.437v-7.414c0-0.24-0.238-0.437-0.529-0.437h-1.99
				c-0.291,0-0.529,0.197-0.529,0.437l0,9.933c0,0.24,0.238,0.437,0.529,0.437h11.776c0.291,0,0.529-0.197,0.529-0.437v-1.645
				c0-0.24-0.238-0.437-0.529-0.437L88.121,44.529L88.121,44.529z"/>
			<path d="M86.439,26.462c-6.707,0-12.733,2.41-16.878,6.24c-1.681,1.551-2.862,2.981-3.846,4.932
				c-0.168,0.351,0.215,0.447,0.414,0.495c0.957,0.23,1.892,0.504,2.801,0.819c0.216,0.075,0.625,0.169,0.844-0.136
				c0.791-1.515,1.669-2.536,2.982-3.748c3.362-3.104,8.247-5.057,13.683-5.057c10.141,0,18.36,6.794,18.36,15.176
				c0,0.499-0.029,0.994-0.087,1.482c-0.9,7.686-8.737,13.694-18.273,13.694c-1.304,0-1.348,0.679-1.348,0.679
				s-0.069,1.737,0.009,2.401c0.056,0.474,0.526,0.465,0.526,0.465c0.443,0.021,0.363,0,0.813,0
				c11.899,0,21.656-7.585,22.577-17.226c0.048-0.493,0.072-0.991,0.072-1.495C109.088,34.843,98.947,26.462,86.439,26.462z"/>
		</g>
	</g>
</g>
</svg>
