<?xml version="1.0" encoding="utf-8"?>
<!-- Generator: Adobe Illustrator 17.0.0, SVG Export Plug-In . SVG Version: 6.00 Build 0)  -->
<!DOCTYPE svg PUBLIC "-//W3C//DTD SVG 1.1//EN" "http://www.w3.org/Graphics/SVG/1.1/DTD/svg11.dtd">
<svg version="1.1" id="Capa_1" xmlns="http://www.w3.org/2000/svg" xmlns:xlink="http://www.w3.org/1999/xlink" x="0px" y="0px"
	 width="134.725px" height="131px" viewBox="0 0 134.725 131" enable-background="new 0 0 134.725 131" xml:space="preserve">
<rect fill="#4CBBFF" stroke="#000000" stroke-width="4" stroke-miterlimit="10" width="134.725" height="131"/>
<g>
	<g>
		<path d="M79.783,87.008c-0.639,0.805-1.575,1.389-2.642,1.651l-5.307,1.291c-0.417,0.105-0.846,0.159-1.28,0.159
			c-0.978,0-1.923-0.266-2.72-0.766c-1.17-0.725-1.904-1.868-2.02-3.106l-0.466-4.88c-0.11-1.001,0.192-2.004,0.831-2.81
			l0.196-0.251H47.447c-1.527,0-2.766-1.121-2.766-2.478c0-1.362,1.238-2.483,2.766-2.483h22.912l5.12-6.512H47.447
			c-1.527,0-2.766-1.121-2.766-2.481c0-1.36,1.238-2.481,2.766-2.481l31.975-0.073l11.99-15.309V35.143
			c0-1.863-1.619-3.367-3.705-3.367h-9.179v6.468c0,3.054-2.804,5.469-6.227,5.469H53.84c-3.431,0-6.138-2.417-6.138-5.469v-6.468
			h-9.278c-2.09,0-3.781,1.506-3.781,3.367v57.845c0,1.863,1.693,3.45,3.781,3.45h49.279c2.092,0,3.707-1.589,3.707-3.45V72.305
			L79.783,87.008z M47.447,50.385h31.239c1.524,0,2.764,1.12,2.764,2.48c0,1.36-1.24,2.481-2.764,2.481H47.447
			c-1.527,0-2.766-1.121-2.766-2.481C44.682,51.504,45.92,50.385,47.447,50.385z"/>
		<path d="M53.891,40.46h18.444c1.396,0,2.532-1.009,2.532-2.256v-9.446c0-1.247-1.135-2.256-2.532-2.256h-2.779
			c-0.019-3.176-2.918-5.75-6.492-5.75c-3.576,0-6.471,2.573-6.492,5.75h-2.682c-1.4,0-2.532,1.009-2.532,2.256v9.444
			C51.36,39.448,52.491,40.46,53.891,40.46z M63.067,23.954c1.588,0,2.876,1.138,2.893,2.549h-5.792
			C60.187,25.092,61.476,23.954,63.067,23.954z"/>
		<path d="M114.744,35.958c-0.086-0.42-0.354-0.788-0.746-1.031l-4.618-2.866c-0.312-0.195-0.671-0.288-1.025-0.288
			c-0.563,0-1.124,0.237-1.468,0.683L74.174,74.227l7.557,4.693l32.717-41.77C114.718,36.803,114.826,36.374,114.744,35.958z"/>
		<path d="M69.022,81.048l0.474,4.905c0.023,0.283,0.192,0.535,0.449,0.698c0.183,0.112,0.398,0.176,0.611,0.176
			c0.093,0,0.188-0.012,0.28-0.036l5.335-1.301c0.242-0.059,0.451-0.191,0.595-0.373l2.003-2.558l-7.562-4.695l-2.003,2.558
			C69.062,80.604,68.995,80.826,69.022,81.048z"/>
	</g>
</g>
</svg>
