<?xml version="1.0" encoding="utf-8"?>
<!-- Generator: Adobe Illustrator 17.0.0, SVG Export Plug-In . SVG Version: 6.00 Build 0)  -->
<!DOCTYPE svg PUBLIC "-//W3C//DTD SVG 1.1//EN" "http://www.w3.org/Graphics/SVG/1.1/DTD/svg11.dtd">
<svg version="1.1" id="Capa_1" xmlns="http://www.w3.org/2000/svg" xmlns:xlink="http://www.w3.org/1999/xlink" x="0px" y="0px"
	 width="134.725px" height="131px" viewBox="0 0 134.725 131" enable-background="new 0 0 134.725 131" xml:space="preserve">
<rect fill="#2D3E50" width="134.725" height="131"/>
<g>
	<g>
		<path d="M107.785,43.18v56.786c0,4.639-4.161,8.413-9.275,8.413H56.194c-5.114,0-9.275-3.774-9.275-8.413V63.043
			c1.323,0.2,2.673,0.329,4.058,0.329c0.982,0,1.946-0.066,2.898-0.168v36.763c0,1.159,1.04,2.103,2.319,2.103H98.51
			c1.278,0,2.319-0.944,2.319-2.103V43.18c0-1.16-1.04-2.103-2.319-2.103H75.557c0-2.193-0.363-4.308-1.015-6.309H98.51
			C103.624,34.767,107.785,38.541,107.785,43.18z M50.59,60.604c-12.062,0-21.875-8.901-21.875-19.841
			c0-10.941,9.813-19.842,21.875-19.842c12.062,0,21.875,8.901,21.875,19.842C72.465,51.703,62.652,60.604,50.59,60.604z
			 M50.59,56.397c9.504,0,17.237-7.013,17.237-15.635c0-8.622-7.732-15.635-17.237-15.635c-9.506,0-17.237,7.013-17.237,15.635
			C33.353,49.384,41.086,56.397,50.59,56.397z M63.709,42.866c1.28,0,2.319-0.942,2.319-2.103s-1.039-2.103-2.319-2.103h-10.8
			v-8.256c0-1.161-1.039-2.103-2.319-2.103s-2.319,0.942-2.319,2.103v10.359c0,1.161,1.039,2.103,2.319,2.103H63.709z
			 M90.471,59.918H65.352c-1.28,0-2.319,0.942-2.319,2.103c0,1.161,1.039,2.103,2.319,2.103h25.119c1.28,0,2.319-0.942,2.319-2.103
			C92.789,60.86,91.751,59.918,90.471,59.918z M90.511,72.676H65.392c-1.28,0-2.319,0.942-2.319,2.103
			c0,1.161,1.039,2.103,2.319,2.103h25.119c1.28,0,2.318-0.942,2.318-2.103C92.83,73.618,91.793,72.676,90.511,72.676z
			 M90.511,85.962H65.392c-1.28,0-2.319,0.943-2.319,2.103c0,1.161,1.039,2.103,2.319,2.103h25.119c1.28,0,2.318-0.942,2.318-2.103
			C92.83,86.904,91.793,85.962,90.511,85.962z"/>
	</g>
	<g>
	</g>
	<g>
	</g>
	<g>
	</g>
	<g>
	</g>
	<g>
	</g>
	<g>
	</g>
	<g>
	</g>
	<g>
	</g>
	<g>
	</g>
	<g>
	</g>
	<g>
	</g>
	<g>
	</g>
	<g>
	</g>
	<g>
	</g>
	<g>
	</g>
</g>
</svg>
