<?xml version="1.0" encoding="utf-8"?>
<!-- Generator: Adobe Illustrator 17.0.0, SVG Export Plug-In . SVG Version: 6.00 Build 0)  -->
<!DOCTYPE svg PUBLIC "-//W3C//DTD SVG 1.1//EN" "http://www.w3.org/Graphics/SVG/1.1/DTD/svg11.dtd">
<svg version="1.1" id="Capa_1" xmlns="http://www.w3.org/2000/svg" xmlns:xlink="http://www.w3.org/1999/xlink" x="0px" y="0px"
	 width="134.725px" height="131px" viewBox="0 0 134.725 131" enable-background="new 0 0 134.725 131" xml:space="preserve">
<rect x="0" fill="#4CBBFF" stroke="#000000" stroke-width="4" stroke-miterlimit="10" width="134.725" height="131"/>
<g>
	<g id="Layer_1_155_">
		<g>
			<path d="M84.001,32.365H52.832c-2.296,0-4.157,2.05-4.157,4.576c0,2.526,1.862,4.576,4.157,4.576h31.169
				c2.299,0,4.157-2.05,4.157-4.576C88.156,34.415,86.299,32.365,84.001,32.365z"/>
			<path d="M88.156,54.105c0-2.528-1.858-4.576-4.157-4.576H52.832c-2.296,0-4.157,2.05-4.157,4.576
				c0,2.528,1.862,4.579,4.157,4.579h31.169C86.299,58.683,88.156,56.633,88.156,54.105z"/>
			<path d="M68.418,75.847c2.296,0,4.155-2.05,4.155-4.576c0-2.528-1.86-4.579-4.155-4.579H52.832c-2.296,0-4.157,2.05-4.157,4.579
				s1.862,4.576,4.157,4.576H68.418z"/>
			<path d="M99.79,91.416l-4.36,3.169v11.394H41.403V23.592H95.43v18.087l8.313-15.857v-6.809c0-2.528-1.862-4.576-4.157-4.576
				h-62.34c-2.296,0-4.155,2.05-4.155,4.576v91.547c0,2.528,1.86,4.576,4.155,4.576h62.34c2.298,0,4.159-2.05,4.159-4.576V85.332
				l-1.986,3.784C101.274,90.039,100.593,90.834,99.79,91.416z"/>
			<path d="M124.366,35.634c-0.086-0.411-0.963-4.109-6.251-7.473c-5.288-3.362-8.634-2.35-9.003-2.224
				c-0.496,0.174-0.914,0.542-1.175,1.039L81.962,76.524c-0.161,0.311-0.257,0.656-0.276,1.011l-0.973,17.879
				c-0.047,0.866,0.354,1.684,1.033,2.119c0.685,0.433,1.527,0.403,2.185-0.071l13.573-9.868c0.27-0.193,0.494-0.456,0.656-0.763
				l25.977-49.556C124.397,36.779,124.477,36.196,124.366,35.634z M89.168,89.542c-0.691-0.615-1.475-1.196-2.317-1.733
				c-0.846-0.538-1.694-0.99-2.523-1.345l0.29-5.361c1.084,0.156,2.69,0.641,4.731,1.935c2.039,1.296,3.22,2.59,3.889,3.544
				L89.168,89.542z"/>
			<path d="M62.065,96.996c0.136,0.919,1.099,1.204,1.743,1.5c0.623,0.289,1.366-0.259,1.883-0.536
				c3.171-1.699,7.466,0.298,10.863,0.298c2.01,0,2.01-3.432,0-3.432c-3.961,0-7.256-1.103-11.182-0.39
				c0-0.251-0.084-0.589-0.329-1.05c-0.733-1.382-1.667-1.774-2.603-1.607c-0.062-0.163-0.123-0.326-0.21-0.491
				c-0.245-0.441-0.588-0.662-0.973-0.754c1.095-2.108,1.801-4.339,1.084-6.143c-0.22-0.548-0.844-0.829-1.346-0.851
				c-2.082-0.086-3.867,2.32-5.206,3.764c-3.348,3.614-6.297,7.717-9.151,11.801c-1.226,1.755,1.484,3.46,2.69,1.735
				c2.529-3.617,5.208-7.128,8.091-10.413c-0.695,1.256-1.432,2.487-2.208,3.674c-1.109,1.888,1.539,3.494,2.69,1.733
				c0.274-0.461,0.623-0.793,1.004-1.078c-0.076,0.212-0.154,0.42-0.232,0.634c0.004,0,0.008,0.002,0.012,0.004
				c-0.06,0.137-0.121,0.274-0.169,0.405c-0.696,1.922,1.905,2.802,2.85,1.32c0.239-0.373,0.461-0.771,0.661-1.189
				C62.014,96.22,62.008,96.606,62.065,96.996z"/>
		</g>
	</g>
</g>
</svg>
