<?xml version="1.0" encoding="utf-8"?>
<!-- Generator: Adobe Illustrator 17.0.0, SVG Export Plug-In . SVG Version: 6.00 Build 0)  -->
<!DOCTYPE svg PUBLIC "-//W3C//DTD SVG 1.1//EN" "http://www.w3.org/Graphics/SVG/1.1/DTD/svg11.dtd">
<svg version="1.1" id="Capa_1" xmlns="http://www.w3.org/2000/svg" xmlns:xlink="http://www.w3.org/1999/xlink" x="0px" y="0px"
	 width="134.725px" height="131px" viewBox="0 0 134.725 131" enable-background="new 0 0 134.725 131" xml:space="preserve">
<rect fill="#4CBBFF" stroke="#000000" stroke-width="4" stroke-miterlimit="10" width="134.725" height="131"/>
<g id="Forma_1_2_">
	<g>
		<path d="M98.823,36.999H86.806v-1.622c0-1.842-2.418-3.335-5.393-3.335h-8.851c0.737-0.824,1.153-1.844,1.153-2.881
			c0-3.409-4.484-6.185-9.993-6.185s-9.989,2.777-9.989,6.185c0,1.037,0.419,2.057,1.156,2.881h-7.261
			c-2.979,0-5.393,1.493-5.393,3.335v1.622H30.206c-4.517,0-8.178,2.265-8.178,5.058v49.859c0,2.793,3.66,5.058,8.178,5.058h68.617
			c4.517,0,8.181-2.265,8.181-5.058V42.058C107.005,39.265,103.341,36.999,98.823,36.999z M63.717,25.475
			c3.286,0,5.955,1.657,5.955,3.689c0,1.162-0.876,2.159-2.246,2.881h-7.414c-1.366-0.724-2.242-1.719-2.242-2.881
			C57.77,27.132,60.439,25.475,63.717,25.475z M93.797,92.018H35.236c-2.777,0-5.03-1.393-5.03-3.11v-43.74
			c0-1.719,2.253-3.11,5.03-3.11h6.991c0,1.368,1.793,2.478,4.005,2.478h36.562c2.216,0,4.008-1.108,4.008-2.478h6.991
			c2.777,0,5.03,1.393,5.03,3.11v43.74h0.004C98.827,90.625,96.574,92.018,93.797,92.018z M45.289,48.891
			c-3.925,0-7.107,1.967-7.107,4.394c0,2.427,3.182,4.394,7.107,4.394s7.107-1.967,7.107-4.394
			C52.396,50.858,49.214,48.891,45.289,48.891z M85.728,50.832H61.487c-2.231,0-4.042,1.099-4.042,2.478s1.808,2.478,4.042,2.478
			h24.245c2.231,0,4.038-1.099,4.038-2.478C89.766,51.932,87.958,50.832,85.728,50.832z M45.289,61.357
			c-3.925,0-7.107,1.967-7.107,4.394s3.182,4.394,7.107,4.394s7.107-1.967,7.107-4.394C52.396,63.324,49.214,61.357,45.289,61.357z
			 M85.728,63.22H61.487c-2.231,0-4.042,1.15-4.042,2.529s1.808,2.527,4.042,2.527h24.245c2.231,0,4.038-1.148,4.038-2.527
			C89.766,64.37,87.958,63.22,85.728,63.22z M45.289,74.679c-3.925,0-7.107,1.967-7.107,4.394c0,2.427,3.182,4.394,7.107,4.394
			s7.107-1.967,7.107-4.394S49.214,74.679,45.289,74.679z M85.728,76.535H61.487c-2.231,0-4.042,1.15-4.042,2.529
			s1.808,2.527,4.042,2.527h24.245c2.231,0,4.038-1.15,4.038-2.527C89.766,77.685,87.958,76.535,85.728,76.535z"/>
	</g>
</g>
</svg>
