<?xml version="1.0" encoding="utf-8"?>
<!-- Generator: Adobe Illustrator 17.0.0, SVG Export Plug-In . SVG Version: 6.00 Build 0)  -->
<!DOCTYPE svg PUBLIC "-//W3C//DTD SVG 1.1//EN" "http://www.w3.org/Graphics/SVG/1.1/DTD/svg11.dtd">
<svg version="1.1" id="Capa_1" xmlns="http://www.w3.org/2000/svg" xmlns:xlink="http://www.w3.org/1999/xlink" x="0px" y="0px"
	 width="134.725px" height="131px" viewBox="0 0 134.725 131" enable-background="new 0 0 134.725 131" xml:space="preserve">
<rect x="0" fill="#4CBBFF" stroke="#000000" stroke-width="4" stroke-miterlimit="10" width="134.725" height="131"/>
<g>
	<path d="M116.111,102.108c0.136-0.177,0.246-0.381,0.35-0.661c0.05-0.159,0.084-0.324,0.101-0.512l0.013-39.721l-15.311,0.003
		l3.093-3.349l0.139-0.172c0.133-0.176,0.243-0.38,0.347-0.659c0.05-0.158,0.084-0.324,0.101-0.513l0.011-39.721l-39.628,0.008
		c-0.212,0.006-0.42,0.044-0.705,0.138c-0.208,0.078-0.404,0.19-0.592,0.339l-10.166,9.379c-0.061,0.057-0.118,0.117-0.172,0.179
		h-0.537v34.372l-24.274,0.006c-0.214,0.006-0.421,0.044-0.711,0.138c-0.203,0.078-0.395,0.187-0.575,0.328l-10.184,9.395
		c-0.057,0.053-0.113,0.112-0.166,0.174h-0.534v41.755h41.289l6.774-7.337v7.337h41.29l9.911-10.735L116.111,102.108z
		 M60.151,26.846l6.108-5.643h31.186l-5.642,5.643H60.151z M23.707,71.257l6.108-5.642h23.341v2.989h4.856l-2.655,2.657h-31.65
		V71.257z M57.513,63.953v-1.081v-0.828v-0.828V43.968h0.041V31.245h32.958v12.724h0.039v17.251v0.825v0.863v1.046v0.83v0.25h-13.27
		h-1.22h-1.592h-1.222h-1.212h-3.527H67.68h-0.83h-2.922h-1.174h-5.242v-0.25V63.953z M102.132,75.656v32.958h-32.96V75.656H102.132
		z M71.77,71.257l2.874-2.655h19.802l2.758-2.989h11.86l-5.644,5.644L71.77,71.257L71.77,71.257z M95.105,62.044l-0.731,0.817
		v-0.817v-0.825V31.159l7.469-8.548v31.9l-5.999,6.707L95.105,62.044z M21.109,108.614V75.656h32.959v32.958L21.109,108.614
		L21.109,108.614z M57.86,75.973l6.441-7.371l0.725-0.83l0.302-0.347v0.347v0.83v2.637v28.086l-0.554,0.619l-6.914,7.73
		L57.86,75.973L57.86,75.973z M105.992,75.973l7.469-8.548v31.9l-7.469,8.349V75.973z"/>
	<path d="M40.629,78.205h-6.346c-0.295,0-0.567,0.156-0.717,0.412l-2.182,3.734c-0.151,0.258-0.151,0.574-0.003,0.832
		c0.148,0.256,0.423,0.416,0.721,0.416h3.725v21.77c0,0.46,0.372,0.83,0.83,0.83h3.975c0.458,0,0.83-0.37,0.83-0.83V79.035
		C41.458,78.575,41.088,78.205,40.629,78.205z"/>
	<path d="M64.386,61.214c0.143,0.271,0.418,0.45,0.727,0.45h3.399h7.198h7.093c0.318,0,0.582-0.182,0.721-0.442
		c0.063-0.117,0.109-0.244,0.109-0.388v-3.736c0-0.458-0.373-0.83-0.83-0.83h-8.02l2.939-3.477c1.17-1.383,2.102-2.536,2.851-3.524
		c0.768-1.012,1.36-1.907,1.762-2.649c0.48-0.866,0.805-1.752,1.006-2.649c0.149-0.651,0.24-1.306,0.24-1.965
		c0-2.481-0.918-4.591-2.72-6.269c-1.775-1.666-3.997-2.51-6.604-2.51c-5.362,0-8.554,3.132-9.233,9.059
		c-0.027,0.234,0.049,0.469,0.206,0.648c0.158,0.176,0.382,0.277,0.619,0.277h3.957c0.42,0,0.773-0.312,0.824-0.729
		c0.441-3.582,2.35-3.997,3.747-3.997c1.062,0,1.922,0.332,2.632,1.012c0.702,0.674,1.042,1.489,1.042,2.49
		c0,0.573-0.206,1.238-0.595,1.982c-0.084,0.157-0.165,0.315-0.266,0.482c-0.302,0.516-0.752,1.171-1.337,1.948
		c-0.601,0.8-1.35,1.747-2.237,2.836l-9.144,11.07c-0.204,0.247-0.247,0.591-0.109,0.882C64.366,61.199,64.38,61.204,64.386,61.214z
		"/>
	<path d="M85.6,106.627c2.695,0,4.95-0.833,6.701-2.478c1.763-1.658,2.658-3.812,2.658-6.404c0-2.739-0.92-4.859-2.737-6.313
		c1.535-1.431,2.313-3.298,2.313-5.574c0-2.366-0.824-4.332-2.448-5.841c-1.608-1.507-3.699-2.272-6.213-2.272
		c-2.486,0-4.469,0.655-5.897,1.948c-1.412,1.277-2.347,3.271-2.786,5.929c-0.039,0.24,0.029,0.484,0.188,0.672
		c0.156,0.187,0.388,0.292,0.632,0.292h3.955c0.392,0,0.728-0.272,0.811-0.653c0.243-1.105,0.608-1.914,1.037-2.318
		c0.446-0.393,1.118-0.593,2.007-0.593c0.969,0,1.725,0.276,2.316,0.851C88.719,84.418,89,85.118,89,86.014
		c0,1.162-0.381,1.972-1.17,2.475c-0.248,0.162-0.96,0.431-2.944,0.431c-0.459,0-0.83,0.371-0.83,0.83v3.394
		c0,0.457,0.371,0.83,0.83,0.83c1.731,0,2.593,0.29,3.005,0.531c1.002,0.595,1.486,1.602,1.486,3.073
		c0,1.128-0.337,2.029-1.023,2.743c-0.686,0.695-1.536,1.034-2.6,1.034c-1.076,0-1.913-0.268-2.554-0.815
		c-0.644-0.551-1.041-1.343-1.214-2.426c-0.065-0.402-0.412-0.697-0.818-0.697H77.33c-0.235,0-0.455,0.099-0.613,0.272
		c-0.159,0.173-0.237,0.405-0.214,0.639c0.185,1.854,0.637,3.344,1.346,4.434C79.539,105.324,82.146,106.627,85.6,106.627z"/>
</g>
</svg>
