<?xml version="1.0" encoding="utf-8"?>
<!-- Generator: Adobe Illustrator 17.0.0, SVG Export Plug-In . SVG Version: 6.00 Build 0)  -->
<!DOCTYPE svg PUBLIC "-//W3C//DTD SVG 1.1//EN" "http://www.w3.org/Graphics/SVG/1.1/DTD/svg11.dtd">
<svg version="1.1" id="Capa_1" xmlns="http://www.w3.org/2000/svg" xmlns:xlink="http://www.w3.org/1999/xlink" x="0px" y="0px"
	 width="134.725px" height="131px" viewBox="0 0 134.725 131" enable-background="new 0 0 134.725 131" xml:space="preserve">
<rect fill="#4CBBFF" stroke="#000000" stroke-width="4" stroke-miterlimit="10" width="134.725" height="131"/>
<g id="Forma_1">
	<g>
		<path d="M38.6,84.844h16.027l2.195-14.17H41.345L38.6,84.844z M43.883,74.075h9.239l-1.141,7.369h-9.525L43.883,74.075z
			 M58.82,56.775l-3.321,2.121l-0.314,2.026H46.2l1.347-6.951h7.512l4.649-2.934l0.043-0.274h-14.6L42.563,64.13H57.68L58.82,56.775
			z M60.454,51.589l-7.951,5.018l-2.075-2.168l-2.064,1.365l3.629,4.17l10.395-6.639L60.454,51.589z M114.385,22.759l-3.906-5.026
			c-1.026-1.319-2.84-1.485-4.055-0.371l-3.366,3.091l7.619,9.805l3.366-3.09C115.257,26.052,115.41,24.078,114.385,22.759z
			 M96.587,45.516l10.917,48.953H29.217l11.564-51.854h35.405l4.854-4.277H37.686L24.213,98.746h88.293l-12.555-56.3L96.587,45.516z
			 M95.708,44.003l0.013-0.011l3.798-3.488l9.678-8.887l-7.619-9.805L70.816,50.061l7.62,9.806L95.708,44.003z M64.517,64.329
			l11.942-3.147l-7.166-9.223L64.517,64.329z"/>
	</g>
</g>
</svg>
