<?xml version="1.0" encoding="utf-8"?>
<!-- Generator: Adobe Illustrator 17.0.0, SVG Export Plug-In . SVG Version: 6.00 Build 0)  -->
<!DOCTYPE svg PUBLIC "-//W3C//DTD SVG 1.1//EN" "http://www.w3.org/Graphics/SVG/1.1/DTD/svg11.dtd">
<svg version="1.1" id="Capa_1" xmlns="http://www.w3.org/2000/svg" xmlns:xlink="http://www.w3.org/1999/xlink" x="0px" y="0px"
	 width="134.725px" height="131px" viewBox="0 0 134.725 131" enable-background="new 0 0 134.725 131" xml:space="preserve">
<rect fill="#4CBBFF" stroke="#000000" stroke-width="4" stroke-miterlimit="10" width="134.725" height="131"/>
<g id="Forma_1">
	<g>
		<path d="M114.373,26.992h-10.78v-4.159c0-0.84-0.805-1.522-1.797-1.522h-71.69c-0.992,0-1.797,0.681-1.797,1.522v7.727h7.401
			c1.985,0,3.593,1.363,3.593,3.043v4.26c0,1.681-1.609,3.043-3.593,3.043h-7.401v10.956h7.401c1.985,0,3.593,1.363,3.593,3.043
			v4.26c0,1.681-1.609,3.043-3.593,3.043h-7.401v10.956h7.401c1.985,0,3.593,1.363,3.593,3.043v4.261
			c0,1.681-1.609,3.043-3.593,3.043h-7.401v23.505c0,0.84,0.805,1.522,1.797,1.522h84.267c0.992,0,1.797-0.681,1.797-1.522V28.513
			C116.17,27.673,115.366,26.992,114.373,26.992z M68.621,45.43c10.835,0,18.699,6.84,18.699,16.263
			c0,6.145-2.768,10.115-7.052,10.115c-2.401,0-4.295-1.48-4.81-3.588c-1.809,1.407-4.253,2.231-7.055,2.231
			c-6.004,0-10.363-3.781-10.363-8.989c0-5.226,4.358-9.019,10.363-9.019c5.983,0,10.331,3.766,10.362,8.963h0.002v5.647
			c0,1.043,0.645,1.83,1.5,1.83c2.118,0,3.598-2.956,3.598-7.19c0-7.728-6.411-13.338-15.245-13.338
			c-9.014,0-15.557,5.568-15.557,13.239c0,7.309,6.33,12.615,15.052,12.615c1.82,0,4.36-0.504,6.038-1.199l1.517,2.628
			c-2.162,0.895-5.198,1.496-7.555,1.496c-10.723,0-18.506-6.535-18.506-15.54C49.61,52.228,57.605,45.43,68.621,45.43z
			 M108.983,102.452H35.496v-4.92h66.3c0.993,0,1.797-0.681,1.797-1.522V33.078h5.39V102.452z M68.403,55.368
			c-4.068,0-6.908,2.506-6.908,6.094c0,3.57,2.841,6.064,6.908,6.064c4.068,0,6.909-2.493,6.909-6.064
			C75.313,57.874,72.471,55.368,68.403,55.368z M24.53,46.357v-4.26c-1.378,0-2.499-0.949-2.499-2.116s1.121-2.117,2.499-2.117
			h11.352v-4.261H24.53c-4.152,0-7.53,2.861-7.53,6.377C17,43.497,20.378,46.357,24.53,46.357z M24.53,67.66V63.4
			c-1.378,0-2.499-0.949-2.499-2.117c0-1.167,1.121-2.117,2.499-2.117h11.352v-4.26H24.53c-4.152,0-7.53,2.861-7.53,6.377
			C17,64.799,20.378,67.66,24.53,67.66z M24.53,80.469h11.352v-4.261H24.53c-4.152,0-7.53,2.861-7.53,6.377s3.378,6.377,7.53,6.377
			v-4.261c-1.378,0-2.499-0.95-2.499-2.116C22.03,81.418,23.152,80.469,24.53,80.469z"/>
	</g>
</g>
</svg>
