<?xml version="1.0" encoding="utf-8"?>
<!-- Generator: Adobe Illustrator 17.0.0, SVG Export Plug-In . SVG Version: 6.00 Build 0)  -->
<!DOCTYPE svg PUBLIC "-//W3C//DTD SVG 1.1//EN" "http://www.w3.org/Graphics/SVG/1.1/DTD/svg11.dtd">
<svg version="1.1" id="Capa_1" xmlns="http://www.w3.org/2000/svg" xmlns:xlink="http://www.w3.org/1999/xlink" x="0px" y="0px"
	 width="134.725px" height="131px" viewBox="0 0 134.725 131" enable-background="new 0 0 134.725 131" xml:space="preserve">
<rect fill="#2D3E50" width="134.725" height="131"/>
<g>
	<g>
		<g>
			<path fill="#FFFFFF" d="M50.377,67.095c6.596,2.155,16.954,2.537,16.954,2.537c0.232,0.004,0.458,0.005,0.685,0.005v0.001
				c0.01,0,0.02,0,0.03,0s0.021,0,0.031,0v-0.001c0.227-0.001,0.455-0.002,0.685-0.005c0,0,10.357-0.382,16.953-2.537
				c0,0,0.943-0.162,0.973-1.743c0,0-0.339-6.928-3.207-10.042c0,0-0.719-0.807-2.755-1.362c0,0-6.642-1.48-7.089-2.738
				c0,0-2.2,4.166-5.59,4.12c-3.39,0.047-5.591-4.119-5.591-4.119c-0.448,1.257-7.089,2.738-7.089,2.738
				c-2.021,0.533-2.755,1.362-2.755,1.362c-2.868,3.115-3.207,10.042-3.207,10.042C49.434,66.933,50.377,67.095,50.377,67.095z"/>
			<path fill="#FFFFFF" d="M60.732,46.266c0.488,2.997,4.01,6.101,7.203,6.101c3.673,0,7.157-3.269,7.705-6.1
				c0.201-0.105,0.548-0.366,0.664-0.956c0,0,0.779-2.048-0.262-1.829c0.372-0.787,1.569-3.868-0.749-5.781
				c0,0-1.081-1.092-3.735-1.671c-0.106-0.053-0.19-0.11-0.302-0.167c0,0,0.06,0.053,0.13,0.136
				c-0.14-0.026-0.296-0.051-0.453-0.079c-0.146-0.116-0.316-0.23-0.492-0.349c0,0,0.166,0.119,0.352,0.327
				c-0.08-0.015-0.136-0.035-0.206-0.039c-0.116-0.138-0.266-0.27-0.458-0.406c0,0,0.081,0.103,0.191,0.268
				c-0.503-0.261-1.477-0.866-1.477-1.541c0,0-0.621,0.208-0.968,0.588c-0.149-0.17-0.02-0.37-0.02-0.37
				c-0.282,0.116-1.014,0.548-1.245,1.134l-0.21-0.208c-0.427-0.359-1.179-0.083-1.179-0.083s-3.876,1.226-5,3.769
				c0,0-0.649,1.144,0.216,4.51c-1.234-0.425-0.392,1.789-0.392,1.789C60.176,45.904,60.511,46.165,60.732,46.266z"/>
			<path fill="#FFFFFF" d="M94.694,24.571V21h-7.803v3.571H49.202V21h-7.798v3.571H25.113V109h85.866V24.571H94.694z
				 M29.594,105.735V27.838h11.811v4.567h7.798v-4.567h37.699v4.567h7.793v-4.567h11.815v77.897H29.594z"/>
			<rect x="39.953" y="94.711" fill="#FFFFFF" width="45.47" height="3.309"/>
			<rect x="39.946" y="75.328" fill="#FFFFFF" width="58.851" height="3.294"/>
			<rect x="39.946" y="81.951" fill="#FFFFFF" width="54.396" height="3.313"/>
			<rect x="39.946" y="88.386" fill="#FFFFFF" width="49.932" height="3.291"/>
		</g>
	</g>
</g>
</svg>
