<?xml version="1.0" encoding="utf-8"?>
<!-- Generator: Adobe Illustrator 17.0.0, SVG Export Plug-In . SVG Version: 6.00 Build 0)  -->
<!DOCTYPE svg PUBLIC "-//W3C//DTD SVG 1.1//EN" "http://www.w3.org/Graphics/SVG/1.1/DTD/svg11.dtd">
<svg version="1.1" id="Capa_1" xmlns="http://www.w3.org/2000/svg" xmlns:xlink="http://www.w3.org/1999/xlink" x="0px" y="0px"
	 width="134.725px" height="131px" viewBox="0 0 134.725 131" enable-background="new 0 0 134.725 131" xml:space="preserve">
<rect fill="#2D3E50" width="134.725" height="131"/>
<g>
	<g>
		<path fill="#FFFFFF" d="M34.973,103.009c-1.157,0-2.097-0.912-2.097-2.032V38.391c0-1.12,0.94-2.031,2.097-2.031H79.82
			c1.157,0,2.097,0.911,2.097,2.031v27.06c1.993-0.644,4.083-1.071,6.251-1.252V38.391c0-4.463-3.745-8.093-8.348-8.093H44.516
			v-3.205c0-1.12,0.94-2.031,2.097-2.031h44.848c1.157,0,2.097,0.911,2.097,2.031v37.161c2.173,0.234,4.261,0.734,6.251,1.434
			V27.093c0-4.463-3.744-8.093-8.347-8.093H46.614c-4.603,0-8.347,3.63-8.347,8.093v3.205h-3.293c-4.603,0-8.348,3.63-8.348,8.093
			v62.586c0,4.463,3.745,8.093,8.348,8.093h35.972c-1.8-1.795-3.342-3.831-4.566-6.061L34.973,103.009L34.973,103.009z"/>
		<path fill="#FFFFFF" d="M45.603,53.917h18.038c1.728,0,3.125-1.357,3.125-3.031c0-1.674-1.397-3.031-3.125-3.031H45.603
			c-1.727,0-3.124,1.357-3.124,3.031C42.479,52.56,43.876,53.917,45.603,53.917z"/>
		<path fill="#FFFFFF" d="M72.318,64.343c0-1.674-1.397-3.031-3.125-3.031h-23.59c-1.727,0-3.124,1.357-3.124,3.031
			s1.397,3.031,3.124,3.031h23.59C70.921,67.373,72.318,66.017,72.318,64.343z"/>
		<path fill="#FFFFFF" d="M68.647,74.764H45.603c-1.727,0-3.124,1.357-3.124,3.031s1.397,3.031,3.124,3.031h19.531
			C66.028,78.645,67.218,76.615,68.647,74.764z"/>
		<path fill="#FFFFFF" d="M45.603,88.217c-1.727,0-3.124,1.357-3.124,3.031s1.397,3.031,3.124,3.031h17.874
			c-0.171-1.205-0.293-2.427-0.293-3.678c0-0.805,0.052-1.597,0.125-2.384H45.603L45.603,88.217z"/>
		<path fill="#FFFFFF" d="M90.531,84.339c-5.365,0-10.115,4.311-11.989,6.261c1.874,1.949,6.623,6.258,11.989,6.258
			c5.387,0,10.123-4.308,11.989-6.257C100.648,88.653,95.9,84.339,90.531,84.339z M90.531,95.146c-2.588,0-4.688-2.036-4.688-4.546
			c0-2.512,2.099-4.546,4.688-4.546s4.688,2.033,4.688,4.546C95.218,93.111,93.119,95.146,90.531,95.146z"/>
		<path fill="#FFFFFF" d="M90.531,71.659c-10.789,0-19.534,8.479-19.534,18.941c0,10.46,8.745,18.942,19.534,18.942
			s19.533-8.482,19.533-18.942C110.064,80.138,101.32,71.659,90.531,71.659z M90.531,99.889c-8.43,0-15.017-8.011-15.294-8.352
			c-0.442-0.55-0.442-1.323,0-1.872c0.278-0.342,6.864-8.357,15.294-8.357c8.429,0,15.016,8.015,15.294,8.357
			c0.442,0.549,0.442,1.321,0,1.872C105.547,91.878,98.96,99.889,90.531,99.889z"/>
	</g>
</g>
</svg>
