<?xml version="1.0" encoding="utf-8"?>
<!-- Generator: Adobe Illustrator 17.0.0, SVG Export Plug-In . SVG Version: 6.00 Build 0)  -->
<!DOCTYPE svg PUBLIC "-//W3C//DTD SVG 1.1//EN" "http://www.w3.org/Graphics/SVG/1.1/DTD/svg11.dtd">
<svg version="1.1" id="Capa_1" xmlns="http://www.w3.org/2000/svg" xmlns:xlink="http://www.w3.org/1999/xlink" x="0px" y="0px"
	 width="134.725px" height="131px" viewBox="0 0 134.725 131" enable-background="new 0 0 134.725 131" xml:space="preserve">
<rect fill="#2D3E50" width="134.725" height="131"/>
<g>
	<g>
		<g>
			<path fill="#FFFFFF" d="M39.562,93.934H54.32l2.022-15.357H42.09L39.562,93.934z M44.427,82.262h8.508l-1.051,7.986h-8.771
				L44.427,82.262z"/>
			<polygon fill="#FFFFFF" points="58.181,63.514 55.122,65.813 54.833,68.01 46.56,68.01 47.8,60.476 54.717,60.476 58.998,57.295 
				59.038,56.998 45.594,56.998 43.211,71.485 57.131,71.485 			"/>
			<polygon fill="#FFFFFF" points="59.686,57.894 52.364,63.333 50.454,60.983 48.554,62.462 51.895,66.982 61.467,59.787 			"/>
			<path fill="#FFFFFF" d="M109.345,26.649l-3.596-5.447c-0.944-1.429-2.615-1.609-3.734-0.402l-3.099,3.35l7.015,10.626
				l3.099-3.349C110.149,30.218,110.289,28.078,109.345,26.649z"/>
			<polygon fill="#FFFFFF" points="96.055,47.985 92.957,51.312 103.009,104.364 30.921,104.364 41.57,48.168 74.171,48.168 
				78.64,43.533 38.72,43.533 26.314,109 107.617,109 			"/>
			<polygon fill="#FFFFFF" points="97.553,25.624 69.226,56.237 76.242,66.865 92.149,49.673 92.16,49.66 95.657,45.88 
				104.568,36.249 			"/>
			<polygon fill="#FFFFFF" points="63.426,71.701 74.422,68.291 67.824,58.295 			"/>
		</g>
	</g>
</g>
</svg>
